<?xml version="1.0" standalone="no"?>
<!DOCTYPE svg PUBLIC "-//W3C//DTD SVG 20010904//EN"
 "http://www.w3.org/TR/2001/REC-SVG-20010904/DTD/svg10.dtd">
<svg version="1.0" xmlns="http://www.w3.org/2000/svg"
 width="300.000000pt" height="300.000000pt" viewBox="0 0 300.000000 300.000000"
 preserveAspectRatio="xMidYMid meet">
<metadata>
Created by potrace 1.10, written by Peter Selinger 2001-2011
</metadata>
<g transform="translate(0.000000,300.000000) scale(0.100000,-0.100000)"
fill="#000000" stroke="none">
<path d="M80 2971 c0 -35 -14 -46 -52 -43 -15 1 -28 -2 -28 -8 0 -5 23 -10 50
-10 l50 0 0 45 c0 25 -4 45 -10 45 -5 0 -10 -13 -10 -29z"/>
<path d="M110 2955 l0 -45 135 0 135 0 0 45 c0 25 -5 45 -11 45 -6 0 -8 -8 -5
-18 4 -10 0 -27 -8 -37 -12 -16 -26 -19 -109 -18 -53 1 -101 4 -108 8 -6 4 -9
20 -7 36 3 20 0 29 -9 29 -9 0 -13 -14 -13 -45z"/>
<path d="M400 2955 l0 -45 55 0 55 0 0 45 c0 25 -5 45 -11 45 -5 0 -9 -8 -8
-17 4 -46 0 -53 -36 -53 -33 0 -35 2 -35 35 0 19 -4 35 -10 35 -5 0 -10 -20
-10 -45z"/>
<path d="M530 2956 l0 -46 185 0 185 0 0 45 c0 25 -4 45 -10 45 -5 0 -10 -14
-10 -30 0 -43 -22 -48 -184 -45 -144 3 -161 8 -152 47 2 10 0 21 -5 24 -5 3
-9 -15 -9 -40z"/>
<path d="M910 2955 l0 -45 225 0 225 0 0 45 c0 25 -4 45 -10 45 -5 0 -10 -13
-10 -29 0 -17 -5 -33 -12 -37 -16 -10 -348 -12 -375 -2 -17 5 -23 15 -23 38 0
16 -4 30 -10 30 -5 0 -10 -20 -10 -45z"/>
<path d="M1370 2955 l0 -45 190 0 190 0 0 45 c0 26 -5 45 -11 45 -6 0 -9 -9
-6 -19 3 -11 -1 -28 -8 -38 -12 -17 -27 -19 -165 -17 -162 2 -170 4 -170 52 0
12 -4 22 -10 22 -5 0 -10 -20 -10 -45z"/>
<path d="M1770 2971 c0 -16 -3 -36 -6 -45 -5 -14 18 -16 221 -16 203 0 226 2
221 16 -3 9 -6 29 -6 45 0 17 -4 28 -9 25 -4 -3 -6 -17 -4 -31 7 -36 -12 -40
-212 -40 -189 0 -200 3 -192 53 2 12 0 22 -4 22 -5 0 -9 -13 -9 -29z"/>
<path d="M2220 2955 l0 -45 205 0 205 0 0 45 c0 25 -4 45 -10 45 -5 0 -10 -16
-10 -35 0 -29 -4 -35 -22 -36 -94 -3 -330 1 -338 6 -6 3 -10 19 -10 36 0 16
-4 29 -10 29 -5 0 -10 -20 -10 -45z"/>
<path d="M2640 2955 l0 -45 180 0 c117 0 180 4 180 10 0 7 -54 9 -156 7 -169
-3 -184 1 -184 49 0 13 -4 24 -10 24 -5 0 -10 -20 -10 -45z"/>
<path d="M0 2881 c0 -6 17 -11 38 -13 l37 -3 0 -135 0 -135 -37 -3 c-56 -5
-46 -22 12 -22 l50 0 0 160 0 160 -50 0 c-27 0 -50 -4 -50 -9z"/>
<path d="M110 2730 l0 -160 44 0 45 0 3 48 c3 45 4 47 41 56 28 7 50 6 87 -6
l50 -16 0 119 0 119 -135 0 -135 0 0 -160z m254 107 c8 -50 2 -130 -11 -134
-6 -2 -26 0 -45 5 -36 10 -95 -2 -117 -23 -7 -7 -16 -28 -20 -46 -4 -20 -13
-34 -21 -34 -12 0 -15 23 -15 130 l0 130 60 5 c33 3 83 3 112 2 50 -4 53 -5
57 -35z"/>
<path d="M398 2770 l-3 -121 49 -14 c27 -8 53 -15 58 -15 4 0 8 61 8 135 l0
135 -54 0 -55 0 -3 -120z m86 92 c10 -16 16 -177 7 -191 -13 -20 -60 -6 -70
21 -8 21 -5 142 3 165 6 14 52 18 60 5z"/>
<path d="M525 2750 l0 -140 50 -16 c32 -11 99 -18 188 -21 l137 -5 0 161 0
161 -187 0 -188 0 0 -140z m348 111 c10 -10 11 -247 1 -262 -8 -14 -168 -4
-240 15 -96 25 -94 23 -94 141 0 100 1 105 23 110 58 13 295 10 310 -4z"/>
<path d="M910 2730 l0 -160 225 0 225 0 0 160 0 160 -225 0 -225 0 0 -160z
m431 62 c2 -150 0 -185 -9 -194 -5 -5 -96 -8 -203 -6 l-194 3 -3 114 c-5 165
-8 160 86 163 42 2 132 2 200 0 l122 -3 1 -77z"/>
<path d="M1373 2730 l-2 -160 190 0 189 0 0 160 0 160 -187 0 -188 0 -2 -160z
m357 63 c3 -77 4 -137 1 -180 -1 -23 -2 -23 -155 -23 -85 0 -162 3 -171 6 -14
6 -16 24 -14 127 1 67 3 127 6 134 4 10 44 13 168 13 l162 0 3 -77z"/>
<path d="M1765 2730 l0 -160 220 0 220 0 0 160 0 160 -220 0 -220 0 0 -160z
m417 127 c10 -16 10 -239 0 -255 -6 -9 -55 -12 -188 -13 -99 0 -187 3 -196 6
-14 6 -16 25 -15 138 l2 132 80 5 c127 8 309 0 317 -13z"/>
<path d="M2220 2730 l0 -160 205 0 205 0 0 160 0 160 -205 0 -205 0 0 -160z
m385 0 l0 -135 -174 -3 c-100 -1 -179 2 -184 7 -10 10 -11 247 -1 262 3 5 83
8 182 7 l177 -3 0 -135z"/>
<path d="M2640 2730 l0 -160 180 0 c113 0 180 4 180 10 0 6 -61 10 -164 10
-140 0 -165 2 -170 16 -10 26 -7 252 3 259 6 3 82 6 170 6 91 0 161 5 161 10
0 5 -77 9 -180 9 l-180 0 0 -160z"/>
<path d="M228 2653 c-17 -4 -18 -70 -18 -1214 l0 -1209 25 0 25 0 0 1209 c0
666 -3 1212 -7 1214 -5 2 -16 2 -25 0z m22 -1213 c0 -1060 -2 -1200 -15 -1200
-13 0 -15 140 -15 1200 0 1060 2 1200 15 1200 13 0 15 -140 15 -1200z"/>
<path d="M270 1451 c0 -666 3 -1211 8 -1211 4 0 75 11 157 25 83 14 264 43
404 65 139 22 326 56 415 74 88 19 221 44 294 57 73 12 129 26 125 30 -9 9
-269 -27 -294 -40 -8 -5 -29 -7 -45 -4 -23 4 -26 2 -14 -7 12 -9 7 -10 -23 -5
-23 4 -37 2 -33 -3 3 -5 -13 -12 -37 -15 -23 -4 -118 -18 -212 -32 -416 -63
-701 -105 -717 -105 -17 0 -18 62 -18 1168 1 996 3 1163 14 1142 8 -14 12 -28
10 -32 -3 -5 1 -8 8 -8 9 0 9 -3 -2 -10 -12 -8 -11 -10 5 -10 22 0 32 34 14
45 -5 4 -9 11 -9 16 0 10 37 3 80 -14 14 -6 31 -9 39 -8 7 1 11 -2 8 -6 -3 -5
9 -10 26 -10 18 -1 46 -7 62 -14 17 -7 35 -11 42 -10 6 1 14 -3 18 -8 3 -6 12
-8 20 -4 8 3 15 0 15 -7 0 -6 5 -8 11 -4 6 3 14 1 18 -5 4 -7 21 -13 37 -14
16 -1 32 -6 36 -11 4 -6 22 -10 42 -10 19 0 32 -4 29 -10 -4 -5 3 -7 15 -4 12
4 20 3 17 -2 -6 -9 53 -22 66 -14 5 3 9 0 9 -7 0 -6 8 -9 20 -6 11 3 20 1 20
-5 0 -6 9 -8 20 -5 10 3 20 1 22 -3 2 -5 35 -15 73 -23 78 -17 532 -144 552
-156 23 -12 -7 -42 -35 -34 -18 4 -20 8 -10 15 8 5 2 6 -17 2 -24 -4 -27 -3
-15 6 12 8 6 9 -25 5 -31 -4 -35 -3 -20 5 15 7 11 8 -20 5 -31 -4 -36 -3 -20
5 16 8 13 9 -15 4 -26 -4 -31 -3 -20 5 11 8 6 10 -20 5 -27 -4 -31 -3 -20 5
11 8 7 9 -19 4 -27 -5 -32 -3 -26 7 6 10 3 12 -13 8 -12 -4 -22 -2 -22 4 0 5
-4 7 -9 3 -5 -3 -13 0 -16 6 -4 6 -18 8 -32 4 -14 -3 -22 -2 -19 3 3 6 -5 12
-19 14 -15 3 -22 1 -18 -5 4 -6 0 -8 -11 -4 -10 4 -23 7 -29 7 -7 0 -6 4 3 10
11 7 6 8 -17 4 -21 -4 -33 -3 -33 4 0 7 -7 9 -17 5 -10 -4 -14 -2 -10 4 5 7 0
9 -13 6 -12 -3 -20 0 -20 7 0 7 -8 9 -21 5 -14 -5 -25 -1 -35 12 -9 10 -12 12
-8 4 5 -11 2 -13 -17 -8 -13 4 -28 7 -32 7 -5 0 -5 4 -2 10 4 6 -6 7 -25 4
-20 -5 -30 -3 -30 6 0 7 -7 10 -15 6 -8 -3 -15 0 -15 6 0 7 -4 7 -14 -1 -10
-8 -16 -9 -21 -1 -3 5 0 10 7 11 7 0 2 5 -11 10 -13 5 -26 7 -29 4 -3 -3 0 -5
6 -5 7 0 12 -4 12 -9 0 -6 -11 -6 -27 0 -16 5 -54 16 -85 25 -32 8 -58 21 -58
27 0 8 -2 9 -8 1 -5 -8 -42 -2 -121 18 -63 15 -116 26 -118 24 -3 -2 10 -7 28
-11 24 -5 28 -9 18 -16 -9 -7 -4 -8 16 -3 23 4 27 3 15 -5 -11 -8 -7 -10 20
-5 27 4 31 3 20 -5 -11 -8 -7 -10 20 -5 28 4 32 3 20 -6 -12 -9 -8 -10 20 -5
26 5 31 4 20 -4 -11 -8 -6 -10 20 -5 28 5 32 3 20 -6 -13 -10 -12 -11 4 -6 10
4 35 3 55 0 31 -6 33 -8 16 -16 -16 -6 -14 -7 7 -3 38 7 85 -4 66 -17 -8 -6
-1 -7 21 -3 26 6 32 4 26 -6 -6 -9 -3 -11 8 -6 26 10 82 -3 65 -15 -8 -6 -1
-7 22 -3 27 5 32 4 20 -5 -12 -9 -7 -10 20 -5 26 5 31 4 20 -4 -11 -8 -6 -10
20 -5 27 4 31 3 20 -5 -11 -8 -7 -10 20 -5 27 4 31 3 20 -5 -11 -8 -7 -10 20
-5 27 4 32 3 20 -5 -12 -9 -9 -10 14 -5 21 5 27 4 22 -5 -6 -9 0 -10 20 -5 19
5 25 4 20 -5 -6 -9 0 -10 20 -5 19 5 25 4 20 -5 -6 -9 0 -10 21 -6 22 5 25 4
13 -5 -12 -9 -8 -10 19 -5 24 5 31 4 26 -4 -5 -8 2 -10 22 -6 22 5 25 4 13 -5
-12 -9 -7 -10 20 -5 27 5 32 4 20 -5 -12 -9 -7 -10 20 -5 26 5 31 4 20 -4 -11
-8 -6 -10 20 -5 27 4 31 3 20 -5 -11 -8 -7 -10 20 -5 27 4 31 3 20 -5 -11 -8
-7 -10 20 -5 27 4 31 3 20 -5 -11 -8 -7 -9 19 -4 23 4 32 3 28 -5 -5 -6 0 -8
13 -5 12 3 20 0 20 -7 0 -9 4 -9 17 1 9 8 18 13 20 12 13 -10 23 0 18 17 -5
15 -3 18 9 14 9 -3 16 -2 16 3 0 5 -6 10 -12 10 -7 0 -83 21 -168 46 -85 25
-220 64 -300 86 -432 119 -868 242 -887 251 -13 5 -23 13 -23 18 0 5 186 -45
413 -110 388 -111 436 -124 426 -114 -2 2 -186 57 -409 120 -223 64 -413 119
-422 122 -17 5 -18 -57 -18 -1205z"/>
<path d="M0 2551 c0 -6 17 -11 38 -13 l37 -3 3 -149 c1 -91 -1 -153 -8 -161
-5 -7 -21 -10 -34 -8 -13 3 -27 0 -30 -6 -5 -7 9 -11 43 -11 l51 0 0 180 0
180 -50 0 c-27 0 -50 -4 -50 -9z"/>
<path d="M110 2380 l0 -180 45 0 45 0 0 180 0 180 -45 0 -45 0 0 -180z m54
143 c8 -19 7 -284 -1 -296 -3 -4 -11 -3 -19 4 -11 9 -14 39 -14 123 0 156 14
223 34 169z"/>
<path d="M800 2530 c52 -16 96 -30 98 -30 1 0 2 14 2 30 l0 30 -97 -1 -98 0
95 -29z"/>
<path d="M912 2528 l3 -31 215 -63 c118 -35 218 -64 223 -64 4 0 7 43 7 95 l0
95 -226 0 -225 0 3 -32z m414 8 c16 -6 20 -111 5 -120 -5 -3 -55 8 -112 25
-57 17 -108 32 -114 33 -35 8 -132 42 -144 50 -11 8 5 12 60 16 89 6 286 3
305 -4z"/>
<path d="M1372 2462 l-2 -98 165 -49 165 -48 0 -34 c0 -29 3 -33 25 -33 l25 0
0 180 0 180 -187 0 -188 0 -3 -98z m359 29 c6 -42 1 -202 -6 -209 -2 -2 -14 3
-27 11 -12 8 -79 31 -148 52 -168 50 -160 45 -160 113 0 31 4 62 8 69 8 13
213 22 287 13 39 -5 40 -6 46 -49z"/>
<path d="M1765 2380 l0 -181 48 2 c48 3 74 19 62 39 -3 5 -1 10 6 10 10 0 10
3 1 12 -7 7 -12 17 -12 23 0 5 5 3 10 -5 8 -12 13 -11 34 9 13 13 23 28 22 35
-2 6 -1 8 1 4 3 -5 14 -8 26 -8 20 0 20 1 2 13 -12 10 -15 16 -6 21 6 4 18 0
26 -8 19 -19 51 -10 35 9 -9 11 -6 12 12 8 16 -4 20 -3 13 5 -15 16 -57 21
-79 10 -39 -21 -105 -90 -111 -118 -7 -33 -38 -48 -60 -30 -12 10 -15 43 -15
156 0 81 4 145 10 149 5 3 94 6 197 5 193 0 202 -2 203 -42 0 -30 -28 -47 -75
-46 -49 1 -125 -39 -102 -54 19 -12 27 -9 28 10 0 14 2 14 9 -3 6 -14 9 -16
10 -5 2 8 2 18 2 21 -2 9 40 -1 56 -14 10 -8 16 -7 22 2 4 8 13 10 19 7 6 -4
11 -1 12 6 0 7 5 3 11 -9 6 -13 14 -23 17 -23 4 0 7 38 6 85 l0 85 -220 0
-220 0 0 -180z"/>
<path d="M2220 2480 c0 -69 2 -80 18 -80 14 0 15 -2 2 -10 -12 -8 -10 -10 10
-10 19 0 21 -3 11 -9 -20 -13 -24 -44 -5 -37 8 3 13 2 10 -3 -3 -5 0 -14 8
-20 10 -9 16 -8 26 4 7 8 22 15 34 15 17 0 18 2 6 10 -13 8 -12 10 3 10 9 0
26 6 37 13 17 10 22 9 30 -3 5 -8 10 -13 11 -10 0 3 2 13 4 23 6 32 -37 32
-111 1 -6 -3 -25 10 -43 28 -29 29 -32 38 -29 83 l3 50 180 0 180 0 0 -105 c0
-105 0 -105 -25 -108 -16 -1 -36 7 -55 24 -56 49 -76 59 -85 44 -5 -8 -6 -18
-3 -23 3 -5 8 -5 12 1 4 6 12 3 21 -6 8 -9 14 -18 13 -19 -2 -2 -3 -6 -3 -10
0 -5 5 -1 10 7 6 9 10 10 10 3 0 -6 -4 -15 -10 -18 -5 -3 -10 -11 -10 -17 0
-7 4 -7 13 0 9 8 17 8 27 0 12 -8 11 -9 -5 -4 -19 6 -19 5 -2 -8 10 -8 29 -13
42 -11 14 1 22 -2 19 -6 -3 -5 2 -9 10 -9 9 0 16 5 16 10 0 6 7 10 15 10 13 0
15 22 15 135 l0 135 -205 0 -205 0 0 -80z"/>
<path d="M2641 2405 c0 -86 5 -155 10 -155 5 0 9 -15 9 -32 0 -22 3 -29 9 -20
6 11 10 10 15 -4 6 -14 9 -16 15 -5 7 10 43 13 155 12 80 -1 146 2 146 6 0 5
-56 8 -125 7 -196 -1 -215 16 -215 205 0 90 3 110 16 115 9 3 85 6 170 6 96 0
154 4 154 10 0 6 -67 10 -180 10 l-181 0 2 -155z"/>
<path d="M345 2540 c3 -6 -6 -15 -21 -20 -15 -6 -25 -13 -22 -16 3 -2 17 0 32
5 37 15 32 3 -6 -15 -27 -12 -29 -14 -7 -10 34 7 36 -22 2 -35 -32 -12 -29
-21 5 -14 l27 6 -30 -16 -30 -15 28 5 c19 4 26 2 22 -5 -3 -5 -12 -10 -20 -10
-8 0 -17 -5 -20 -10 -4 -7 3 -9 22 -5 l28 5 -30 -15 -30 -16 28 6 c19 4 26 2
22 -5 -3 -5 -13 -10 -21 -10 -8 0 -14 -4 -14 -9 0 -5 10 -7 23 -5 16 4 15 1
-8 -11 -28 -14 -29 -15 -4 -10 34 6 36 -23 2 -36 -32 -12 -29 -21 5 -13 31 8
20 -10 -13 -20 -12 -3 -9 -4 8 -2 15 2 27 -1 27 -5 0 -5 -9 -9 -19 -9 -11 0
-23 -5 -26 -10 -4 -7 3 -9 22 -5 l28 5 -30 -15 -30 -16 28 6 c19 4 26 2 22 -5
-3 -5 -14 -10 -23 -11 -11 -1 -8 -4 8 -9 l25 -8 -24 -1 c-16 -1 -21 -6 -18
-15 3 -8 1 -17 -6 -20 -7 -3 0 -3 16 0 33 7 36 -3 5 -17 l-23 -10 23 5 c12 2
22 0 22 -5 0 -5 -9 -9 -19 -9 -11 0 -23 -5 -26 -10 -4 -7 3 -9 22 -5 l28 5
-30 -15 -30 -16 28 6 c19 4 26 2 22 -5 -3 -5 -13 -10 -21 -10 -8 0 -14 -4 -14
-9 0 -5 10 -7 23 -5 17 3 15 1 -8 -11 -27 -15 -28 -15 -5 -11 22 4 26 1 28
-19 1 -16 -3 -25 -13 -25 -7 0 -17 -5 -21 -11 -4 -8 1 -9 16 -4 15 5 20 4 16
-4 -4 -6 -14 -11 -22 -11 -8 0 -14 -5 -14 -10 0 -7 6 -7 20 0 11 6 20 7 20 2
0 -5 -12 -14 -26 -21 -15 -6 -24 -14 -21 -17 3 -3 15 -1 26 6 12 6 21 7 21 1
0 -5 -12 -14 -27 -20 l-28 -11 30 6 c33 6 25 -10 -10 -20 -12 -3 -9 -4 8 -2
15 2 27 -1 27 -5 0 -5 -9 -9 -20 -9 -11 0 -20 -5 -20 -11 0 -6 8 -8 18 -5 28
9 24 -24 -5 -35 -32 -12 -29 -21 5 -14 l27 5 -30 -15 -30 -16 28 6 c33 7 35
-2 5 -16 l-23 -10 23 5 c12 2 22 0 22 -5 0 -5 -9 -9 -20 -9 -11 0 -20 -4 -20
-9 0 -5 10 -7 23 -5 17 3 15 1 -8 -11 l-30 -16 28 6 c19 4 26 2 22 -5 -3 -5
-14 -10 -23 -11 -11 -1 -8 -4 8 -9 23 -7 23 -8 3 -9 -12 -1 -25 -6 -29 -12 -5
-9 2 -10 22 -6 l29 6 -30 -15 -30 -15 28 4 c21 3 27 0 27 -14 0 -14 -8 -19
-27 -20 l-28 -1 30 -8 c24 -6 26 -8 8 -9 -13 0 -23 -5 -23 -10 0 -5 10 -7 23
-4 28 7 11 -12 -18 -21 -12 -3 -9 -4 8 -2 32 4 37 -11 5 -17 -22 -4 -22 -4 2
-6 l25 -2 -25 -15 c-23 -14 -23 -14 -2 -9 13 4 22 2 22 -4 0 -6 -10 -11 -22
-12 -22 -1 -22 -1 2 -9 l25 -8 -25 -2 -25 -2 25 -8 c24 -8 24 -8 3 -9 -13 -1
-23 -5 -23 -10 0 -5 10 -7 23 -4 28 7 11 -12 -18 -21 -12 -3 -9 -4 8 -2 15 2
27 -1 27 -5 0 -5 -12 -10 -27 -10 l-28 -1 30 -8 c28 -7 29 -8 5 -10 -22 -2
-23 -3 -5 -8 11 -4 21 -15 23 -24 2 -13 -4 -18 -25 -19 l-28 -1 30 -8 c24 -6
26 -8 8 -9 -13 0 -23 -5 -23 -10 0 -5 9 -7 20 -4 11 3 20 0 20 -6 0 -6 -12
-12 -27 -12 l-28 -1 30 -8 c24 -6 26 -8 8 -9 -13 0 -23 -5 -23 -11 0 -5 10
-11 23 -11 20 -1 20 -2 2 -6 -34 -8 -41 -23 -11 -23 15 0 25 -4 21 -10 -3 -5
-12 -7 -20 -3 -8 3 -15 0 -15 -6 0 -6 10 -12 23 -12 18 -1 16 -3 -8 -9 l-30
-8 28 -1 c17 -1 26 -5 22 -12 -4 -6 -13 -8 -21 -5 -8 3 -14 1 -14 -4 0 -5 10
-11 23 -13 l22 -4 -22 -2 c-13 0 -23 -6 -23 -12 0 -6 7 -9 15 -6 8 4 17 2 20
-3 4 -6 -4 -10 -17 -11 -23 -1 -23 -1 2 -9 24 -8 24 -8 3 -9 -13 -1 -23 -5
-23 -11 0 -5 10 -11 23 -11 18 -1 16 -3 -8 -9 l-30 -8 30 -2 c30 -2 30 -2 5
-10 l-25 -8 25 -8 25 -8 -30 -7 -30 -7 30 -2 c30 -2 30 -2 5 -10 -24 -8 -24
-8 -2 -9 12 -1 22 -5 22 -11 0 -5 -10 -10 -22 -11 -22 -1 -22 -1 2 -9 25 -8
25 -8 -5 -10 l-30 -2 30 -8 c28 -7 29 -8 5 -9 -25 -2 -25 -2 -2 -11 27 -12 29
-24 2 -17 -11 3 -20 1 -20 -4 0 -5 10 -10 23 -10 18 -1 16 -3 -8 -9 l-30 -8
30 -2 30 -2 -30 -8 -30 -8 30 -2 30 -2 -30 -8 -30 -8 30 -2 30 -2 -30 -8 -30
-8 30 -2 c29 -2 29 -2 5 -9 l-25 -7 25 -9 25 -9 -25 -7 c-24 -7 -24 -7 -2 -8
12 -1 22 -6 22 -12 0 -6 -9 -8 -20 -4 -11 4 -20 2 -20 -4 0 -6 10 -12 23 -12
18 -1 16 -3 -8 -9 l-30 -8 30 -2 30 -2 -30 -8 c-23 -6 -25 -8 -8 -9 33 -2 38
-21 6 -22 l-28 -1 30 -8 30 -8 -30 -2 c-29 -2 -29 -2 -5 -9 20 -5 24 -13 25
-42 1 -33 -1 -35 -24 -32 -25 4 -25 3 4 -11 l30 -15 -30 6 c-34 6 -25 -12 10
-20 15 -3 12 -5 -10 -7 l-30 -2 30 -8 30 -8 -30 -2 -30 -2 30 -8 30 -8 -30 -2
-30 -2 30 -8 30 -8 -30 -2 -30 -2 30 -8 c23 -6 25 -8 8 -9 -29 -1 -41 -21 -13
-21 12 0 19 -4 15 -10 -3 -5 -12 -7 -19 -4 -10 4 -14 -2 -12 -20 0 -14 6 -26
13 -26 7 0 10 7 6 18 -5 14 -3 15 8 5 7 -7 24 -12 39 -12 24 1 24 2 -5 10 -22
6 -12 7 35 5 42 -3 56 -1 40 4 -14 4 -18 8 -10 9 79 6 1199 175 1228 186 16 6
17 125 1 125 -6 0 -9 -7 -5 -15 3 -8 1 -15 -4 -15 -6 0 -10 18 -10 41 0 22 4
38 9 34 5 -3 12 -1 16 5 3 5 -1 10 -9 10 -22 0 -20 37 2 43 16 4 16 5 0 6 -15
1 -18 11 -18 57 0 31 4 53 9 49 5 -3 12 -1 16 5 3 5 -1 10 -9 10 -9 0 -16 5
-16 10 0 6 7 10 16 10 8 0 12 5 9 10 -4 6 -11 8 -16 5 -5 -4 -9 -2 -9 4 0 5 8
12 18 14 16 4 16 5 0 6 -10 0 -18 5 -18 10 0 5 8 12 18 14 16 4 16 5 0 6 -10
0 -18 6 -18 12 0 5 4 8 9 4 5 -3 12 -1 16 5 3 5 -1 10 -9 10 -22 0 -20 17 2
23 16 4 16 5 0 6 -23 1 -24 21 -1 21 19 0 9 13 -12 16 -13 2 -15 -33 -15 -242
0 -189 3 -244 13 -244 6 0 13 -11 13 -24 1 -16 -3 -23 -10 -20 -7 3 -57 -4
-112 -15 -54 -11 -146 -25 -204 -31 -58 -6 -127 -15 -155 -21 -27 -5 -88 -13
-134 -18 -50 -5 -87 -14 -92 -23 -7 -10 -9 -10 -9 0 0 12 -11 12 -100 -3 -14
-2 -43 -4 -65 -5 -32 -1 -36 -3 -20 -10 22 -10 22 -10 -22 -16 -18 -2 -108
-15 -200 -29 -92 -14 -174 -25 -182 -25 -19 0 -5 13 17 16 156 19 349 49 356
55 5 5 -6 6 -25 4 -45 -6 -322 -47 -331 -48 -9 -2 -11 2134 -2 2156 4 12 15
11 70 -4 35 -10 64 -14 64 -9 0 4 -30 16 -67 25 -38 9 -74 19 -81 21 -7 2 -10
-1 -7 -6z"/>
<path d="M384 2365 c0 -71 1 -99 3 -62 2 37 2 96 0 130 -2 34 -3 4 -3 -68z"/>
<path d="M400 1686 c0 -616 2 -776 12 -776 10 0 13 155 11 755 -1 415 2 755 5
755 4 0 108 -25 231 -55 166 -41 231 -53 250 -47 21 7 4 14 -107 41 -72 18
-139 31 -147 27 -9 -3 -14 -2 -11 3 3 4 -45 21 -107 36 -62 15 -118 30 -124
33 -10 3 -13 -162 -13 -772z"/>
<path d="M445 2300 l0 -100 33 0 32 0 0 89 c0 94 0 95 -40 104 l-25 6 0 -99z"/>
<path d="M1201 2386 c7 -8 191 -57 195 -53 3 2 -38 16 -91 31 -95 26 -112 30
-104 22z"/>
<path d="M525 2290 l0 -90 188 0 187 0 0 43 0 44 -177 43 c-98 23 -182 44
-188 47 -6 2 -10 -31 -10 -87z m110 32 c22 -6 82 -22 134 -34 87 -21 127 -45
109 -64 -9 -8 -314 -7 -328 1 -10 6 -14 97 -5 106 7 7 46 3 90 -9z"/>
<path d="M1480 2304 c41 -13 80 -23 85 -23 6 1 -24 12 -65 25 -41 13 -79 23
-85 23 -5 -1 24 -12 65 -25z"/>
<path d="M925 2311 c-13 -5 54 -25 218 -65 188 -46 240 -55 254 -46 15 9 14
10 -10 5 -16 -3 -26 -2 -23 3 7 12 -100 36 -115 26 -8 -5 -9 -3 -4 6 6 9 0 11
-26 5 -26 -5 -31 -4 -19 5 12 9 7 10 -20 5 -27 -5 -32 -4 -20 5 12 9 7 10 -20
5 -27 -5 -32 -4 -20 5 12 9 7 10 -20 5 -27 -5 -32 -4 -20 5 12 9 7 10 -20 5
-27 -5 -32 -4 -20 5 12 9 7 10 -20 5 -23 -4 -30 -3 -22 3 24 17 -36 27 -73 13z"/>
<path d="M910 2240 l0 -40 168 1 167 1 -150 38 c-193 49 -185 49 -185 0z"/>
<path d="M1682 2178 c-1 -44 2 -78 7 -78 17 0 61 46 61 64 0 9 -4 16 -9 16 -5
0 -16 3 -25 6 -13 5 -16 -2 -18 -37 -1 -31 -4 -21 -8 31 l-6 75 -2 -77z"/>
<path d="M385 1570 c0 -349 1 -492 2 -317 2 174 2 460 0 635 -1 174 -2 31 -2
-318z"/>
<path d="M1412 2191 c-7 -4 19 -15 64 -25 51 -12 79 -15 86 -8 7 7 -8 14 -47
22 -31 6 -59 9 -62 6 -4 -3 -11 -2 -17 4 -7 5 -17 5 -24 1z"/>
<path d="M1869 2191 c-1 -3 -1 -8 -1 -11 0 -3 -25 -4 -56 -2 -31 2 -52 -1 -46
-5 14 -10 27 -46 14 -38 -6 3 -10 2 -10 -3 0 -10 41 -24 49 -17 2 3 -1 5 -7 5
-7 0 -12 4 -12 10 0 5 8 6 17 3 12 -5 15 -2 10 10 -5 14 -2 15 19 7 19 -8 28
-6 42 8 10 10 24 16 31 14 8 -3 12 1 9 9 -4 13 -57 22 -59 10z"/>
<path d="M153 2183 l-43 -4 0 -284 0 -283 45 -4 45 -3 0 292 c0 161 -1 292 -2
291 -2 -1 -22 -3 -45 -5z m17 -289 c-1 -243 -7 -291 -31 -253 -9 15 -12 478
-3 502 3 9 12 13 20 10 12 -4 14 -46 14 -259z"/>
<path d="M447 2181 c-1 -3 -1 -135 1 -292 l3 -285 29 4 30 4 0 283 0 283 -30
4 c-17 3 -32 2 -33 -1z m47 -213 c1 -89 -1 -180 -5 -203 l-6 -40 -2 35 c-2 38
-3 242 -2 329 1 30 4 52 7 48 4 -3 7 -79 8 -169z"/>
<path d="M1098 2183 l-188 -3 0 -285 0 -285 225 0 225 0 0 285 c0 265 -1 285
-17 285 -10 0 -27 2 -38 3 -11 2 -104 1 -207 0z m200 -29 c18 -4 35 -11 39
-17 8 -13 7 -497 -2 -505 -4 -4 -89 -8 -190 -10 -157 -2 -185 0 -199 14 -14
13 -16 50 -16 264 0 227 2 250 18 259 18 12 290 7 350 -5z"/>
<path d="M1649 2177 c-22 -17 -25 -149 -3 -140 8 3 14 -1 14 -11 0 -10 -6 -13
-15 -10 -10 4 -15 0 -15 -12 0 -13 -3 -15 -11 -7 -6 6 -9 42 -7 90 l3 80 -27
-9 -28 -10 0 -177 0 -178 30 -1 c17 0 30 4 30 10 0 6 6 5 16 -3 24 -20 42 -19
47 3 3 11 10 17 16 13 13 -7 14 14 2 33 -6 10 -12 5 -21 -18 -8 -19 -16 -27
-20 -20 -4 7 -10 11 -14 11 -19 -3 -27 0 -22 7 2 4 1 14 -4 22 -7 12 -11 12
-26 -1 -16 -12 -17 -12 -9 1 5 8 9 77 9 155 0 85 1 105 3 50 2 -49 9 -94 15
-100 7 -7 9 -6 5 1 -11 19 18 36 48 28 25 -6 26 -5 16 14 -14 27 -14 39 1 24
7 -7 16 -12 22 -12 5 0 2 6 -9 13 -10 8 -15 18 -12 24 3 5 1 26 -5 47 -8 27
-16 35 -27 31 -12 -4 -11 -1 2 9 18 14 18 14 0 19 -16 4 -16 5 0 6 9 0 17 8
17 16 0 18 0 18 -21 2z"/>
<path d="M2723 2176 c9 -9 17 -21 17 -25 0 -5 12 -6 26 -3 19 3 25 1 20 -7 -4
-6 -1 -11 9 -11 9 0 13 -4 10 -10 -3 -5 3 -10 14 -10 22 0 29 16 9 22 -6 2 -9
12 -5 21 5 14 20 16 92 14 47 -1 85 1 85 5 0 14 -224 9 -239 -4 -11 -10 -13
-10 -7 0 4 6 3 12 -3 12 -5 0 -18 3 -28 7 -17 7 -17 6 0 -11z"/>
<path d="M0 2172 c0 -4 16 -8 35 -8 19 0 38 -4 42 -8 8 -8 7 -516 -2 -524 -3
-3 -22 -8 -42 -12 -37 -7 -36 -8 15 -9 l52 -1 0 285 0 285 -50 0 c-27 0 -50
-4 -50 -8z"/>
<path d="M530 1895 l0 -285 185 0 185 0 0 285 0 285 -185 0 -185 0 0 -285z
m342 258 c17 -21 14 -513 -4 -524 -7 -5 -80 -7 -161 -6 -119 2 -150 5 -157 17
-6 9 -9 118 -7 265 l2 249 25 7 c14 4 85 7 158 7 99 -1 135 -5 144 -15z"/>
<path d="M1373 1890 l-1 -280 44 0 c28 0 43 -4 39 -10 -3 -5 -23 -10 -43 -10
l-37 0 0 -337 0 -337 82 0 82 -1 4 258 c2 141 0 257 -5 257 -4 0 -8 -6 -8 -14
0 -8 -3 -22 -7 -32 -5 -12 -3 -15 6 -9 10 6 11 3 3 -12 -6 -10 -11 -101 -12
-207 0 -104 -5 -197 -11 -207 -10 -20 -51 -25 -97 -12 l-24 6 4 273 c3 240 10
319 25 277 3 -7 12 -13 20 -13 13 0 13 2 2 16 -21 26 -18 77 6 89 11 6 20 15
20 20 0 6 4 16 9 24 7 11 5 13 -7 8 -12 -4 -14 0 -11 19 3 14 1 23 -4 20 -4
-2 -14 -1 -22 5 -12 7 -10 9 8 9 18 0 23 5 20 21 -2 15 4 24 20 30 14 5 21 5
17 0 -7 -12 15 -19 37 -13 13 3 16 11 12 31 -4 20 -3 23 5 11 9 -13 11 -13 11
3 0 9 -4 17 -10 17 -5 0 -8 67 -7 170 l2 171 -35 9 c-40 10 -123 29 -130 30
-3 0 -6 -126 -7 -280z m129 213 c14 -13 17 -38 20 -163 3 -156 2 -159 -46
-182 -36 -16 -60 -57 -58 -95 2 -18 -2 -33 -7 -33 -5 0 -11 15 -14 33 -7 51
-9 446 -1 458 9 15 84 3 106 -18z"/>
<path d="M2788 2086 c-10 -7 -16 -15 -13 -18 3 -2 -5 -4 -17 -4 -11 1 -23 -5
-26 -13 -3 -9 0 -11 7 -6 8 4 14 -1 18 -14 3 -11 9 -18 14 -15 5 3 7 9 4 14
-3 5 -1 11 5 15 6 4 13 -7 16 -25 4 -17 10 -33 15 -36 5 -3 6 3 3 13 -5 12 -1
11 11 -5 9 -13 14 -26 11 -29 -3 -4 -6 0 -6 8 -1 10 -5 8 -16 -6 -13 -17 -16
-18 -25 -5 -9 13 -10 13 -6 -2 4 -11 -2 -18 -19 -22 -13 -4 -24 -11 -24 -17 0
-6 -6 -7 -12 -3 -7 4 -10 3 -5 -1 13 -15 49 -17 41 -3 -4 7 -4 10 1 6 4 -4 17
-2 28 3 15 8 22 8 28 -2 6 -10 10 -7 17 11 l9 24 7 -28 c6 -25 10 -27 38 -21
21 5 28 4 24 -4 -5 -7 2 -11 16 -11 l23 -1 -25 -15 c-14 -8 -18 -14 -10 -13
27 3 40 -1 40 -11 0 -5 -6 -7 -13 -4 -7 2 -21 -4 -31 -15 -10 -11 -24 -18 -30
-14 -6 3 -5 0 2 -8 8 -9 15 -10 20 -4 4 6 16 12 27 13 31 5 38 17 30 51 -7 32
-44 68 -79 77 -25 6 -80 114 -65 129 24 24 -3 34 -33 11z"/>
<path d="M2338 1920 c-14 -25 -15 -29 -1 -34 9 -4 21 -2 28 4 6 5 14 9 16 7 2
-1 1 2 -4 8 -5 6 -11 4 -17 -5 -14 -22 -23 -4 -10 20 18 33 7 33 -12 0z"/>
<path d="M2283 1863 c-3 -7 0 -20 7 -29 10 -12 11 -17 1 -27 -10 -9 -16 -8
-27 8 -15 19 -15 18 -8 -10 16 -70 19 -70 47 -3 15 34 27 66 27 70 0 12 -42 4
-47 -9z"/>
<path d="M2146 1850 c15 -6 26 -24 35 -59 7 -27 16 -48 20 -45 4 2 5 -4 3 -13
-2 -10 0 -31 4 -48 l9 -30 17 34 c20 38 18 114 -4 134 -10 9 -11 9 -6 -1 4 -7
2 -20 -5 -28 -11 -13 -14 -13 -25 7 -6 13 -9 30 -6 38 3 9 1 12 -6 7 -6 -3
-13 -2 -17 4 -3 5 -14 10 -23 9 -13 0 -12 -2 4 -9z"/>
<path d="M2337 1832 c2 -3 -4 -16 -12 -29 -9 -13 -13 -23 -10 -23 3 0 -6 -17
-19 -39 -42 -66 -55 -109 -57 -189 -3 -88 5 -135 28 -154 14 -11 14 -9 -1 20
-13 25 -15 45 -10 80 7 49 61 207 88 260 19 37 21 51 4 34 -21 -21 -32 -13
-13 8 12 13 15 23 8 29 -5 5 -8 6 -6 3z"/>
<path d="M2457 1826 c-4 -11 -1 -13 10 -9 14 5 13 2 -3 -20 -10 -14 -22 -27
-26 -27 -5 0 -8 -7 -8 -16 0 -8 5 -12 10 -9 15 9 12 -6 -4 -19 -7 -6 -18 -31
-24 -56 l-11 -45 30 35 c35 42 45 75 29 95 -9 11 -9 15 -1 15 7 0 10 3 8 8 -2
4 9 17 24 30 25 20 30 21 35 8 6 -17 24 -12 24 6 0 6 -3 8 -7 5 -3 -4 -12 -2
-20 4 -9 8 -17 8 -26 0 -9 -7 -17 -7 -24 0 -7 7 -12 6 -16 -5z"/>
<path d="M2101 1807 c-1 -21 -5 -27 -18 -25 -15 2 -18 -5 -20 -37 -1 -32 1
-36 8 -20 8 17 8 15 4 -7 -7 -35 29 -65 54 -45 14 10 14 10 3 -4 -10 -14 -7
-25 24 -70 48 -72 48 -72 40 -9 -8 61 -37 116 -66 125 -10 3 -21 12 -24 20 -3
8 -12 15 -21 15 -8 0 -15 7 -15 16 0 13 3 14 15 4 12 -10 15 -7 21 14 3 14 4
31 1 38 -3 7 -6 0 -6 -15z"/>
<path d="M2153 1805 c3 -19 0 -37 -9 -50 -15 -19 -15 -19 -10 7 2 15 1 30 -4
33 -4 2 -10 -7 -13 -20 -4 -24 6 -39 26 -40 5 0 15 -11 23 -25 l15 -25 -4 25
c-3 14 -8 34 -12 44 -6 13 -5 17 3 12 8 -5 8 2 0 26 -15 44 -22 50 -15 13z"/>
<path d="M2839 1793 c-7 -10 -9 -15 -5 -11 5 4 21 -1 35 -11 14 -10 32 -16 40
-13 9 3 11 0 7 -7 -4 -6 -4 -11 1 -10 13 3 43 -12 43 -22 0 -4 -7 -5 -17 -2
-11 4 -14 3 -9 -5 4 -7 16 -12 27 -12 10 0 19 -4 19 -10 0 -5 -4 -10 -10 -10
-5 0 -10 -7 -10 -16 0 -11 -5 -14 -16 -10 -10 4 -25 -1 -35 -10 -21 -18 -27
-6 -7 14 6 6 9 14 6 18 -4 3 -14 -8 -22 -25 -19 -36 -20 -45 -4 -35 8 5 9 1 5
-12 -5 -14 -2 -12 12 6 12 15 19 19 19 10 -2 -38 4 -51 35 -64 19 -9 25 -15
15 -15 -10 -1 -18 -5 -18 -10 0 -5 -10 -13 -22 -17 -21 -6 -21 -7 -3 -20 10
-8 13 -14 6 -14 -7 0 -10 -4 -6 -10 3 -5 12 -7 20 -4 8 4 13 10 10 14 -3 4 4
19 15 32 10 14 22 37 25 51 7 26 5 27 -30 27 -21 0 -34 4 -30 10 3 6 20 10 36
10 19 0 28 4 24 11 -4 6 -13 8 -20 5 -16 -6 -12 28 4 48 8 9 5 25 -10 56 -11
23 -18 51 -16 62 4 15 2 18 -11 13 -31 -13 -82 -23 -83 -16 -1 3 -1 9 0 14 2
12 -6 8 -20 -10z"/>
<path d="M2507 1766 c-18 -16 -22 -27 -15 -34 7 -7 4 -20 -11 -40 -29 -41 -27
-56 4 -36 14 9 22 20 19 25 -2 5 3 21 13 36 17 25 17 27 0 20 -24 -9 -21 1 6
23 12 10 19 21 16 24 -3 4 -17 -5 -32 -18z"/>
<path d="M2336 1684 c-17 -51 -31 -124 -35 -172 -6 -78 -5 -85 14 -93 19 -9
19 -9 -2 -5 -20 4 -23 0 -23 -28 0 -32 57 -162 67 -152 3 3 -5 21 -17 40 -20
33 -20 37 -6 58 9 12 16 19 16 16 0 -4 25 4 55 18 41 18 73 24 124 24 51 0 70
4 74 15 4 8 1 17 -5 21 -16 10 13 24 30 15 19 -11 54 -2 49 13 -2 6 -9 12 -15
12 -7 1 -20 2 -29 3 -17 2 -17 2 0 12 9 6 25 9 35 8 9 -1 24 -1 32 0 13 1 13
2 0 11 -13 9 -13 12 4 25 10 7 25 26 32 41 13 23 12 25 -1 14 -18 -15 -19 -7
-4 22 8 15 8 19 -1 16 -6 -2 -10 -6 -8 -10 2 -3 -6 -15 -16 -27 -11 -12 -16
-21 -12 -21 4 0 2 -9 -4 -20 -14 -25 -70 -61 -135 -84 -27 -11 -57 -24 -65
-31 -26 -21 -140 -74 -140 -65 0 13 35 44 68 61 15 7 39 21 53 31 15 10 56 25
90 34 35 9 72 23 83 33 18 16 39 56 40 76 1 6 8 15 16 22 13 10 13 14 1 25
-11 10 -12 10 -7 0 5 -8 -2 -20 -18 -33 -14 -11 -27 -19 -28 -18 -2 1 -13 -3
-24 -9 -18 -9 -26 -8 -47 8 -33 26 -39 25 -68 -6 -13 -14 -34 -30 -46 -35 -24
-9 -66 -81 -67 -114 -1 -13 -7 -19 -18 -19 -10 1 -16 -2 -13 -6 3 -4 -3 -14
-11 -21 -15 -12 -16 -10 -11 21 6 38 46 236 59 289 2 8 -3 16 -11 19 -8 2 -11
0 -7 -6 3 -6 2 -13 -3 -16 -5 -3 -11 1 -14 8 -6 15 5 28 33 40 8 3 5 4 -7 2
-14 -2 -23 2 -25 12 -2 8 -16 -25 -32 -74z m240 -131 c-7 -16 -8 -17 -17 -1
-6 10 -17 14 -31 11 -16 -4 -20 -2 -13 5 14 14 48 20 59 11 5 -4 6 -16 2 -26z
m76 -8 c-3 -5 -7 -4 -10 3 -3 10 -7 10 -18 1 -8 -6 -12 -15 -9 -19 3 -4 -3
-14 -12 -21 -13 -11 -15 -11 -9 -1 5 9 3 12 -5 11 -8 -2 -25 3 -39 10 -24 14
-25 13 -8 -6 17 -19 17 -19 -15 -17 -17 1 -38 -2 -44 -8 -22 -18 -15 7 7 27
19 17 20 17 20 1 0 -9 5 -14 10 -11 6 4 8 10 5 15 -3 4 1 13 9 19 11 9 15 8
21 -6 6 -17 8 -17 24 3 9 11 24 20 34 18 9 -1 17 2 17 7 0 6 6 4 14 -3 8 -7
11 -17 8 -23z"/>
<path d="M2004 1725 c-18 -13 -18 -14 5 -8 16 4 22 2 18 -4 -4 -6 2 -13 13
-16 25 -6 26 5 2 26 -16 15 -21 15 -38 2z"/>
<path d="M2537 1723 c-4 -3 -2 -12 5 -20 8 -11 7 -12 -5 -7 -10 4 -15 0 -13
-10 4 -27 17 -32 32 -12 18 26 18 36 -2 36 -8 0 -12 5 -9 10 7 11 2 13 -8 3z"/>
<path d="M2664 1705 c-5 -12 -9 -13 -21 -4 -11 10 -21 5 -51 -24 -29 -28 -41
-34 -54 -26 -23 13 -63 -15 -77 -54 -9 -25 -8 -26 9 -17 10 5 27 20 37 33 12
16 26 23 41 21 22 -4 51 17 70 52 8 14 13 16 25 6 11 -10 18 -8 32 8 11 12 13
20 6 20 -6 0 -14 -7 -17 -15z"/>
<path d="M1954 1698 c-5 -7 -3 -8 5 -3 8 4 21 -2 33 -15 16 -17 22 -19 29 -8
6 9 9 7 9 -9 0 -13 5 -23 11 -23 5 0 7 5 3 12 -4 7 -3 8 5 4 7 -5 8 -13 4 -19
-5 -7 -8 -25 -7 -40 l1 -28 -29 28 -29 27 17 -34 c21 -44 85 -132 91 -127 2 3
-5 32 -17 66 -23 70 -25 87 -7 94 8 3 13 -5 15 -22 1 -14 6 -44 11 -66 6 -22
12 -52 15 -67 4 -16 30 -46 68 -78 66 -55 108 -105 108 -128 0 -7 -11 -1 -26
15 -14 15 -23 22 -19 16 3 -7 0 -13 -7 -13 -16 0 -96 81 -121 122 -10 15 -36
37 -60 49 -23 12 -55 32 -72 44 -56 41 -60 38 -13 -8 26 -25 56 -63 67 -84 25
-51 29 -54 149 -113 92 -44 105 -55 133 -100 40 -64 47 -64 14 0 -14 28 -23
56 -19 62 5 7 2 8 -6 3 -10 -6 -12 -4 -7 8 4 11 -10 34 -43 70 -27 29 -52 67
-55 83 -10 43 -64 163 -96 210 -26 38 -62 62 -102 68 -9 1 -20 5 -23 9 -11 10
-22 9 -30 -5z"/>
<path d="M2665 1670 c-4 -6 -10 -8 -15 -5 -4 3 -22 -6 -38 -20 -16 -14 -36
-25 -43 -25 -19 0 2 -18 26 -22 11 -2 20 3 20 10 0 16 35 43 45 37 4 -3 10 4
13 15 6 22 2 26 -8 10z"/>
<path d="M2418 1616 c-16 -25 -28 -58 -28 -76 l0 -33 26 39 c22 32 46 115 33
114 -2 -1 -16 -20 -31 -44z"/>
<path d="M1965 1640 c6 -10 4 -12 -9 -7 -15 6 -14 2 4 -23 11 -16 25 -32 30
-35 16 -10 11 12 -5 25 -9 7 -14 19 -11 26 3 7 0 16 -6 20 -7 5 -8 2 -3 -6z"/>
<path d="M1795 1611 c3 -5 1 -12 -5 -16 -6 -4 -8 -10 -5 -15 8 -13 -35 -49
-51 -43 -8 3 -11 9 -8 14 3 5 11 6 17 3 9 -5 9 -4 0 6 -6 7 -9 19 -6 26 4 10
0 12 -11 8 -12 -5 -14 -10 -6 -19 16 -20 -11 -26 -32 -7 -12 10 -18 11 -18 3
0 -6 11 -16 25 -23 13 -6 22 -15 19 -19 -3 -5 1 -6 9 -3 9 3 13 -2 13 -17 -1
-12 6 -24 14 -26 12 -4 12 -3 2 5 -11 7 -10 12 3 26 9 9 13 16 8 16 -4 0 3 7
15 16 13 9 21 22 18 30 -3 8 -1 14 3 14 5 0 11 7 15 15 3 9 0 15 -10 15 -8 0
-13 -4 -9 -9z"/>
<path d="M1870 1608 c0 -7 7 -21 14 -31 13 -17 15 -17 23 -2 8 14 12 13 28 -7
11 -13 13 -17 5 -10 -18 15 -27 15 -33 -1 -3 -7 3 -13 12 -13 9 -1 25 -5 35
-9 15 -6 17 -5 11 5 -5 9 -4 11 4 6 6 -4 9 -11 6 -16 -5 -8 29 -36 74 -60 22
-11 21 -9 -9 34 -18 25 -41 48 -51 51 -9 3 -25 17 -33 31 -14 20 -20 22 -36
14 -14 -7 -23 -6 -34 6 -12 11 -16 12 -16 2z"/>
<path d="M1830 1591 c0 -5 8 -12 17 -15 12 -5 13 -10 5 -18 -12 -12 -4 -41 9
-32 5 3 7 10 4 15 -4 5 -4 9 -2 9 3 0 18 -21 33 -47 15 -27 34 -59 43 -73 l15
-25 -27 24 c-15 14 -32 39 -39 58 -7 18 -16 33 -21 33 -5 0 -7 -7 -3 -15 7
-20 -4 -19 -20 2 -25 35 -25 4 0 -36 24 -38 106 -92 106 -70 0 6 5 7 11 3 6
-3 3 8 -6 26 -9 17 -14 34 -11 37 5 5 51 -88 105 -209 11 -27 24 -48 29 -48
11 0 72 -57 72 -68 0 -6 -16 -12 -35 -14 -44 -5 -56 7 -104 104 l-36 73 -40
-2 c-26 -2 -46 -10 -56 -22 -9 -11 -19 -18 -22 -15 -3 3 -14 1 -24 -5 -10 -6
-12 -11 -5 -11 6 0 12 -5 12 -11 0 -5 -4 -7 -10 -4 -15 9 -12 0 9 -24 11 -13
25 -19 35 -15 22 9 20 23 -3 17 -10 -3 -22 1 -27 8 -5 9 -2 10 11 5 18 -7 18
-6 0 14 -22 25 -9 27 19 3 17 -15 18 -15 8 -2 -10 14 -10 18 3 23 9 3 13 2 10
-3 -3 -5 -1 -12 5 -16 6 -4 8 -11 4 -16 -3 -5 0 -16 6 -24 6 -8 8 -20 4 -27
-5 -10 -4 -11 7 -1 10 10 10 16 1 25 -21 21 -13 32 11 12 15 -13 14 -9 -5 11
-19 21 -24 35 -18 44 13 22 38 22 45 0 4 -10 11 -19 16 -19 5 0 9 -6 7 -12 -1
-7 11 -33 26 -58 27 -43 44 -60 144 -154 44 -40 55 -79 26 -90 -9 -3 -63 -6
-121 -6 -59 0 -104 -2 -102 -4 3 -3 61 -6 129 -7 l125 -1 3 47 c3 43 0 50 -32
80 -20 18 -48 41 -64 51 l-27 19 35 5 c19 3 37 3 40 0 3 -3 45 -25 93 -49 49
-25 97 -56 108 -69 10 -14 19 -20 19 -15 0 14 -37 51 -69 67 -26 14 -49 59
-66 128 -7 30 -25 58 -38 58 -8 0 -7 -4 3 -11 12 -9 12 -10 -3 -5 -10 3 -21 6
-23 6 -3 0 -2 5 2 12 4 7 3 8 -4 4 -28 -17 -142 84 -172 151 -10 23 -48 72
-84 109 -36 36 -66 69 -66 73 0 5 -7 11 -15 15 -8 3 -15 1 -15 -3z m322 -370
c15 -8 30 -20 33 -29 11 -30 -7 -25 -43 12 -38 39 -37 40 10 17z m68 -68 c0
-41 -3 -54 -10 -43 -11 17 -13 61 -4 84 11 28 14 18 14 -41z"/>
<path d="M5 1580 c3 -5 22 -10 41 -10 30 0 34 -3 34 -27 3 -163 -1 -597 -6
-604 -3 -5 -21 -9 -41 -9 -48 0 -39 -6 20 -13 l47 -7 0 340 0 340 -51 0 c-31
0 -48 -4 -44 -10z"/>
<path d="M110 1253 l0 -338 45 -2 45 -1 0 339 0 339 -45 0 -45 0 0 -337z m58
0 c1 -214 -1 -304 -9 -309 -6 -3 -15 0 -20 7 -5 8 -9 148 -8 312 0 275 1 298
17 295 15 -3 17 -30 20 -305z"/>
<path d="M447 1253 l2 -338 31 -2 30 -1 0 339 0 339 -32 0 -33 0 2 -337z m49
119 c-2 -59 -5 -109 -7 -112 -5 -8 -14 183 -10 207 2 13 7 20 12 17 5 -3 7
-53 5 -112z"/>
<path d="M528 1252 l3 -337 130 -2 c92 -1 135 -5 146 -15 15 -11 16 -11 10 5
-4 10 -7 22 -7 26 0 11 -47 61 -57 61 -5 0 -17 -13 -26 -30 -24 -39 -41 -39
-33 0 6 32 -4 39 -24 15 -15 -18 -20 -18 -57 -4 l-28 11 25 13 c30 17 133 19
161 4 11 -5 28 -24 38 -40 l18 -30 7 46 c6 46 -4 82 -28 97 -20 14 -34 8 -29
-11 6 -22 -30 -47 -50 -34 -8 5 -4 9 12 13 14 3 26 11 29 18 3 10 -5 12 -31 7
-31 -6 -40 -3 -62 20 -14 16 -25 31 -25 35 0 4 23 5 51 2 l52 -5 -27 39 c-44
65 -29 137 18 85 12 -14 15 -28 10 -58 -6 -38 -4 -42 40 -79 25 -21 46 -45 47
-54 1 -19 28 39 29 63 0 10 -7 17 -19 17 -10 0 -29 9 -42 19 l-24 20 25 9 c16
6 32 6 43 0 17 -8 18 -7 12 14 -4 12 -19 36 -32 52 -16 19 -23 37 -19 50 3 12
6 30 6 41 0 17 3 16 25 -10 15 -18 25 -42 24 -60 -2 -49 0 -55 16 -49 13 5 15
36 15 190 l0 184 -187 0 -188 0 3 -338z m340 313 c8 -3 12 -35 12 -115 0 -100
-7 -129 -25 -100 -10 17 -44 11 -55 -9 -13 -25 -13 -88 0 -96 15 -10 12 -35
-5 -35 -8 0 -15 7 -15 16 0 19 -39 53 -61 54 -27 0 -39 -23 -39 -73 0 -38 -5
-53 -22 -67 -21 -17 -22 -20 -9 -55 11 -32 11 -39 0 -46 -8 -5 -18 -9 -23 -9
-15 0 -46 -32 -46 -46 0 -7 7 -20 16 -28 14 -14 14 -17 0 -22 -8 -3 -23 -4
-33 -2 -17 3 -18 23 -20 313 -3 281 -1 311 14 323 13 9 53 11 158 6 77 -3 146
-7 153 -9z"/>
<path d="M910 1411 c0 -99 4 -181 9 -183 17 -7 22 -46 6 -61 -8 -9 -15 -24
-15 -33 0 -14 3 -15 12 -6 14 14 57 16 76 4 21 -14 -32 -56 -62 -50 -20 4 -26
1 -26 -13 0 -13 10 -20 34 -25 l35 -6 -35 -31 c-25 -24 -34 -40 -34 -64 0 -31
2 -33 35 -33 30 0 35 3 35 24 0 23 32 56 54 56 5 0 6 -18 3 -40 -5 -39 -4 -40
24 -40 36 0 36 9 3 61 -22 35 -29 40 -52 36 -26 -5 -27 -3 -26 28 1 19 11 46
23 61 20 25 20 28 5 45 -9 10 -25 21 -35 24 -11 4 -19 14 -19 24 0 10 -7 35
-15 54 -19 45 -22 312 -4 323 14 8 376 7 390 -2 5 -3 9 -138 9 -314 0 -271 -2
-309 -16 -314 -9 -3 -63 -6 -120 -6 -57 0 -104 -3 -104 -7 0 -5 58 -8 130 -8
l130 0 0 338 0 337 -225 0 -225 0 0 -179z"/>
<path d="M1806 1545 c-12 -18 -14 -31 -7 -43 6 -12 4 -21 -6 -31 -13 -12 -14
-11 -8 10 7 23 7 23 -8 4 -17 -23 -7 -35 31 -35 26 0 27 6 7 40 -18 31 -18 41
-2 38 6 -2 11 3 9 11 -2 8 3 18 10 22 8 6 9 9 2 9 -7 0 -19 -11 -28 -25z"/>
<path d="M1473 1507 c3 -9 2 -19 -4 -22 -5 -4 -6 -11 -3 -17 4 -6 -1 -8 -16
-3 -20 6 -21 5 -9 -8 14 -15 41 -9 54 13 10 17 25 11 34 -12 l8 -23 7 23 c4
12 10 22 14 22 4 0 6 -128 4 -285 -3 -257 -2 -285 13 -285 14 0 16 25 14 242
-1 134 -5 253 -10 265 -6 17 -5 21 6 17 7 -3 11 -12 8 -20 -3 -8 0 -14 6 -14
9 0 9 -5 1 -20 -14 -26 -2 -26 25 0 l22 20 18 -20 c21 -23 22 -39 31 -302 l5
-168 25 0 26 0 -4 171 c-3 139 -1 166 8 143 8 -18 12 -83 12 -169 l0 -140 77
0 c42 0 82 3 88 7 7 4 -23 8 -65 8 -64 0 -78 3 -82 18 -3 9 -5 67 -5 129 1 61
-2 116 -5 121 -8 13 22 24 37 15 7 -4 -2 9 -19 29 -18 20 -34 42 -36 50 -3 7
-8 10 -12 7 -4 -4 5 -21 20 -38 14 -18 24 -34 21 -37 -3 -3 -13 3 -23 14 -9
12 -24 18 -32 14 -9 -3 -13 -1 -9 5 5 7 0 9 -13 6 -12 -3 -20 0 -20 6 0 7 5 9
10 6 6 -3 10 -1 10 4 0 6 -4 11 -10 11 -5 0 -10 5 -10 11 0 6 7 8 17 5 14 -6
14 -3 -3 15 -19 22 -19 22 1 15 16 -6 15 -2 -7 21 -26 27 -27 30 -13 57 14 25
13 27 0 16 -8 -7 -15 -19 -15 -27 0 -12 -3 -13 -15 -3 -8 6 -19 9 -25 5 -5 -3
-15 -3 -21 1 -8 5 -8 8 0 13 7 5 2 12 -14 21 -14 7 -25 17 -25 22 0 13 28 9
33 -4 3 -7 6 -8 6 -2 1 5 -6 19 -15 30 -8 10 -13 13 -9 7 11 -22 -13 -14 -30
10 -14 20 -15 21 -13 2 2 -11 -1 -20 -7 -20 -5 0 -8 5 -7 10 2 5 0 7 -4 2 -4
-4 -19 0 -32 9 -23 15 -25 15 -19 1z"/>
<path d="M1762 1429 c3 -8 11 -13 17 -11 7 1 10 -2 6 -8 -3 -5 0 -10 9 -10 8
0 16 -5 18 -10 2 -7 14 -7 37 1 31 11 33 13 16 25 -10 7 -32 13 -50 12 -17 -1
-38 2 -45 7 -8 5 -11 3 -8 -6z"/>
<path d="M2928 1391 c-9 -12 -24 -18 -45 -16 -18 1 -33 -2 -33 -6 0 -5 18 -7
40 -5 22 2 43 -1 47 -7 3 -5 1 -7 -5 -3 -6 3 -14 1 -17 -5 -5 -7 -1 -10 10 -7
19 3 31 38 14 38 -6 0 -7 5 -4 10 4 6 11 8 16 5 5 -4 9 -1 9 4 0 17 -18 13
-32 -8z"/>
<path d="M1860 1381 c-25 -10 -57 -23 -71 -30 l-26 -13 26 -28 c33 -35 43 -29
10 7 -19 21 -20 25 -6 20 10 -4 23 -7 28 -7 6 0 8 -4 4 -9 -3 -5 -1 -13 5 -16
6 -4 10 -3 9 2 -4 22 4 34 31 48 36 19 40 19 40 -1 0 -9 5 -12 12 -8 7 4 8 3
4 -5 -6 -9 -11 -9 -21 -1 -11 9 -17 5 -29 -18 -9 -17 -21 -32 -28 -35 -9 -4
-9 -6 -1 -6 6 -1 18 8 26 19 8 11 17 17 20 13 4 -3 7 -2 7 3 0 12 70 5 88 -8
23 -19 13 17 -10 39 -53 47 -69 52 -118 34z"/>
<path d="M2728 1388 c8 -8 9 -15 1 -25 -15 -18 -29 -16 -29 3 0 14 -2 14 -15
0 -12 -12 -22 -13 -41 -6 -14 6 -33 10 -42 10 -15 -1 -14 -3 3 -16 11 -8 28
-13 37 -11 12 4 15 0 11 -12 -6 -14 -4 -14 14 2 11 9 23 17 28 17 4 0 1 -8 -6
-17 -12 -16 -12 -17 2 -6 18 15 70 2 104 -26 18 -15 19 -15 6 1 -7 9 -10 21
-7 27 3 5 -1 12 -10 15 -24 9 -31 7 -14 -4 13 -9 13 -10 0 -9 -8 0 -23 4 -33
8 -16 6 -16 9 -5 18 7 6 18 12 25 14 7 2 0 10 -14 17 -19 8 -24 9 -15 0z"/>
<path d="M1640 1372 c0 -5 -8 -12 -18 -14 -17 -5 -19 -27 -21 -389 -1 -211 -5
-387 -9 -390 -7 -6 -322 -48 -425 -56 -32 -3 -55 -9 -51 -14 3 -6 -12 -7 -38
-4 -33 4 -39 3 -23 -5 15 -8 6 -9 -40 -6 -33 2 -51 1 -40 -4 13 -5 -7 -9 -60
-14 -44 -4 -113 -11 -153 -17 -40 -6 -87 -8 -105 -4 -25 5 -29 4 -17 -5 12 -9
0 -10 -50 -7 -36 3 -51 2 -35 -2 l30 -7 -40 -7 c-22 -4 -54 -7 -70 -7 -17 0
-36 -5 -43 -12 -6 -6 -15 -8 -19 -3 -5 4 -2 10 5 12 17 7 17 253 0 253 -8 0
-9 3 -3 8 16 11 14 222 -2 222 -10 0 -13 -53 -13 -256 l0 -256 27 6 c95 19
411 57 437 52 19 -4 26 -3 18 3 -17 10 93 23 140 16 27 -5 30 -4 13 5 -15 8
-7 9 35 5 40 -3 49 -2 35 5 -14 7 -4 9 35 5 36 -3 48 -2 35 4 -20 8 -20 8 0
13 11 2 27 0 35 -5 10 -6 70 -1 165 13 83 12 174 25 203 27 28 3 52 9 52 12 0
4 -80 -3 -177 -16 -98 -12 -189 -22 -203 -22 -51 1 33 17 190 34 85 10 158 20
162 24 3 3 8 176 10 383 2 288 6 380 16 390 10 10 12 2 8 -40 -2 -28 0 -54 5
-57 5 -4 9 -15 9 -26 0 -10 4 -19 9 -19 4 0 6 12 4 28 -13 77 -14 115 -4 122
9 5 8 10 -4 20 -8 7 -15 8 -15 2z"/>
<path d="M2472 1350 c-37 -23 -46 -25 -36 -8 4 7 3 8 -5 4 -6 -4 -9 -12 -5
-17 3 -6 -2 -9 -12 -7 -27 5 -46 -130 -31 -215 16 -89 13 -201 -7 -282 -14
-56 -26 -79 -61 -115 -23 -25 -47 -54 -53 -65 -11 -20 -11 -20 -12 0 0 33 20
96 30 90 5 -3 11 -2 14 3 2 4 -6 8 -20 8 -13 0 -23 -5 -22 -10 4 -27 -15 -105
-28 -110 -10 -4 -11 0 -3 21 5 14 7 28 4 31 -6 7 -6 6 -28 -41 -12 -26 -28
-43 -53 -53 -44 -18 -116 -65 -110 -71 2 -3 24 7 49 21 24 14 47 23 50 19 4
-4 22 7 40 24 37 36 77 58 77 44 0 -5 -4 -12 -10 -16 -5 -3 -7 -12 -4 -19 3
-9 -7 -18 -27 -25 -43 -15 -32 -23 19 -15 38 6 41 8 36 34 -7 32 16 82 48 104
30 21 41 20 28 -3 -5 -11 -10 -26 -10 -34 0 -23 32 -93 37 -80 3 8 15 5 41 -9
l37 -20 -32 27 c-18 14 -33 34 -34 43 0 11 -2 12 -6 4 -9 -23 -23 -1 -23 36 0
20 10 53 21 72 19 31 19 33 3 19 -38 -32 -48 -32 -21 0 15 18 27 40 28 49 0 9
7 35 15 57 13 37 13 31 9 -85 -4 -110 -3 -128 14 -153 22 -35 123 -90 146 -80
14 5 16 2 11 -15 -4 -11 -3 -23 2 -25 9 -7 10 38 0 48 -3 4 -17 8 -31 9 -35 4
-117 54 -117 71 0 8 -4 15 -10 15 -13 0 -13 80 0 100 7 11 10 -1 10 -39 0 -30
3 -51 7 -47 4 3 24 -10 44 -30 28 -27 47 -38 73 -39 19 0 33 3 30 7 -3 4 -17
8 -32 8 -15 0 -34 5 -42 10 -40 26 88 1 175 -34 17 -7 39 -12 50 -12 11 1 25
-4 31 -9 14 -13 69 -13 69 0 0 5 -6 9 -12 7 -7 -2 -13 2 -13 7 0 6 39 12 93
14 l92 3 -100 1 c-189 2 -210 7 -50 13 l160 6 -184 2 c-146 2 -201 6 -270 23
-93 22 -113 33 -104 55 4 11 26 14 94 14 l89 0 0 105 0 105 -117 1 c-113 2
-115 2 -48 9 39 5 91 6 118 3 l47 -4 -1 198 c-1 109 -4 182 -8 163 -9 -52 -36
-47 -37 8 -1 28 2 42 11 42 8 0 11 -10 8 -27 -3 -27 -3 -27 7 -5 22 52 30 7
30 -181 l0 -192 180 0 c99 0 180 3 180 8 0 4 -74 7 -164 7 -91 0 -167 3 -170
8 -8 14 -11 340 -2 349 5 4 5 -7 1 -24 -4 -22 -3 -33 5 -33 6 0 9 4 5 10 -6
10 15 50 27 50 3 0 5 -15 3 -32 -3 -26 -2 -29 6 -15 6 9 7 22 4 27 -3 6 0 10
7 10 9 0 9 3 -2 10 -8 5 -22 7 -31 5 -9 -3 -43 13 -76 35 -68 45 -94 49 -141
20z m78 -65 c1 6 3 18 4 27 0 10 5 18 11 18 5 0 8 -17 6 -38 -2 -20 -4 -47 -4
-58 -1 -15 -6 -20 -16 -17 -13 4 -14 3 -2 -5 15 -11 44 -5 37 7 -3 4 3 7 13 7
9 0 17 -8 17 -18 0 -10 -3 -18 -6 -18 -3 0 -5 -57 -5 -127 l0 -128 -85 0 -85
0 -2 40 c-2 22 -10 75 -19 117 -22 107 -3 207 39 208 5 0 5 5 2 10 -3 6 0 10
8 10 22 0 28 -12 14 -29 -10 -14 -10 -14 4 -3 10 8 15 21 12 35 -4 18 -3 19 6
7 10 -13 11 -13 12 0 0 10 3 8 9 -5 8 -19 9 -18 11 5 1 18 4 14 9 -15 4 -22 8
-35 10 -30z m48 -410 c9 -3 12 -25 10 -77 l-3 -73 -72 -3 c-85 -3 -88 0 -95
95 -4 57 -2 62 16 65 27 4 127 -1 144 -7z"/>
<path d="M1685 860 c0 -201 1 -283 2 -183 2 101 2 265 0 365 -1 101 -2 19 -2
-182z"/>
<path d="M1643 1175 c-16 -17 -13 -54 4 -48 7 3 13 9 13 15 0 5 -4 6 -10 3 -5
-3 -10 -2 -10 4 0 5 5 11 12 13 6 2 9 9 7 15 -3 8 -8 7 -16 -2z"/>
<path d="M2262 1166 c10 -7 14 -17 10 -21 -4 -5 -2 -5 4 -2 13 7 78 -69 70
-81 -3 -5 1 -9 8 -9 8 0 11 8 9 17 -7 25 -87 110 -104 110 -10 -1 -10 -4 3
-14z"/>
<path d="M890 1130 c0 -26 -1 -29 -17 -67 -17 -43 -17 -47 6 -26 14 13 19 32
19 66 0 26 -2 47 -4 47 -2 0 -4 -9 -4 -20z"/>
<path d="M1643 1113 c-22 -8 -15 -43 8 -43 11 0 17 5 14 10 -4 6 -11 8 -16 5
-5 -4 -9 -2 -9 4 0 5 6 11 13 14 6 2 10 7 7 9 -3 3 -11 3 -17 1z"/>
<path d="M680 1100 c0 -14 38 -22 71 -15 17 4 28 9 25 12 -9 9 -96 12 -96 3z"/>
<path d="M2249 1010 c46 -64 75 -126 62 -134 -5 -3 -12 4 -15 17 -3 12 -21 40
-41 62 l-34 40 -1 -42 c0 -31 4 -43 18 -46 16 -4 16 -5 0 -6 -15 -1 -18 -11
-18 -62 0 -42 -3 -58 -11 -53 -7 4 -10 27 -7 60 l5 54 -221 0 -221 0 0 -105 0
-105 213 0 c128 0 212 -4 212 -10 0 -14 -83 -60 -121 -67 -19 -3 -97 -9 -174
-13 -108 -5 -124 -7 -70 -10 40 -2 56 -5 38 -7 -18 -2 -33 -9 -33 -15 0 -7 -5
-6 -14 2 -8 6 -25 10 -38 7 -20 -4 -20 -4 5 -6 15 0 27 -5 27 -10 0 -4 -25 -6
-55 -4 l-55 4 0 -44 0 -43 -122 -23 c-307 -56 -402 -74 -392 -78 5 -2 91 10
189 27 143 24 209 30 325 30 103 0 150 4 159 13 11 9 13 9 7 0 -5 -9 2 -13 26
-14 18 0 42 -2 53 -4 45 -9 71 -9 84 -1 10 7 12 5 7 -3 -6 -9 10 -12 65 -11
41 1 99 1 129 -1 51 -1 52 -2 20 -9 l-35 -7 38 -2 c30 -1 37 3 37 18 0 14 -6
17 -25 13 -17 -3 -25 0 -25 9 0 8 -9 20 -19 26 -17 10 -18 9 -13 -9 3 -14 1
-19 -6 -14 -7 4 -12 2 -12 -4 0 -6 -5 -8 -10 -5 -6 4 -8 11 -5 16 3 5 -1 6 -9
3 -9 -3 -16 -2 -16 4 0 5 -7 12 -15 16 -12 4 -13 2 -5 -13 5 -11 15 -22 22
-25 7 -3 3 -3 -10 0 -22 5 -65 12 -92 14 -11 0 -10 4 5 16 18 14 17 14 -17 9
-22 -4 -39 -2 -43 6 -6 8 -10 7 -16 -2 -14 -23 -11 -26 24 -22 l32 3 -29 -10
c-18 -5 -36 -6 -46 0 -10 5 -21 6 -25 2 -5 -4 -5 -1 -1 6 4 7 12 10 17 7 5 -4
9 -1 9 4 0 6 -7 11 -16 11 -9 0 -12 5 -8 13 4 7 3 9 -2 4 -9 -8 -10 -12 -13
-39 -1 -9 -4 -9 -11 2 -5 8 -21 14 -37 15 -15 0 -28 5 -28 12 0 6 -4 15 -9 20
-5 4 -6 3 -2 -4 3 -6 2 -14 -4 -18 -14 -9 -1 -27 13 -19 7 4 7 1 -1 -7 -11
-12 -15 -11 -28 5 -14 20 -14 20 -15 0 0 -18 -1 -18 -8 1 -5 11 -7 23 -5 26 2
4 -6 15 -18 25 -12 11 -18 14 -15 8 5 -9 -11 -24 -26 -24 -1 0 -2 10 -2 23 0
18 6 23 28 24 18 0 27 -4 28 -16 0 -15 1 -15 7 0 4 9 15 15 25 13 9 -1 17 2
17 8 0 5 9 6 20 3 15 -5 20 -2 20 12 0 12 3 14 8 6 6 -10 17 -10 42 -3 47 13
63 13 54 -2 -4 -7 1 -6 12 3 10 9 33 19 49 23 l30 6 -24 -20 c-30 -26 -14 -26
19 1 14 11 49 35 78 54 55 36 62 48 83 128 12 49 47 85 117 121 18 9 30 21 27
26 -3 4 0 11 5 13 6 3 5 4 -2 3 -7 -2 -12 -9 -10 -15 1 -6 -5 -11 -13 -11 -8
0 -26 21 -39 48 -14 26 -41 65 -61 87 -36 40 -36 40 4 -15z m35 -116 c10 -26
7 -32 -24 -54 -27 -19 -29 -19 -24 -3 24 74 36 88 48 57z m-102 -27 c11 -15 3
-126 -9 -138 -5 -5 -92 -9 -193 -10 -139 0 -185 3 -192 13 -4 7 -8 41 -8 76 0
53 3 64 19 70 35 13 374 3 383 -11z m-412 -392 c-10 -9 -24 -12 -40 -8 l-25 7
25 7 c14 4 32 7 40 8 12 1 12 -1 0 -14z"/>
<path d="M850 977 c0 -12 -3 -32 -6 -44 -6 -20 -3 -23 25 -23 29 0 31 3 31 33
0 26 -6 36 -25 45 -23 10 -25 9 -25 -11z"/>
<path d="M5 890 c3 -5 16 -10 28 -10 42 0 48 -13 45 -86 l-3 -69 -38 -3 c-24
-2 -37 -8 -37 -18 0 -10 13 -14 50 -14 l50 0 0 105 0 105 -51 0 c-31 0 -48 -4
-44 -10z"/>
<path d="M110 795 l0 -105 45 0 45 0 0 105 0 105 -45 0 -45 0 0 -105z m59 -7
c1 -45 -2 -58 -14 -58 -8 0 -15 3 -16 8 0 4 -3 33 -6 66 -4 43 -2 61 8 67 19
11 27 -13 28 -83z"/>
<path d="M447 812 c1 -48 2 -96 3 -107 1 -20 1 -20 10 0 7 17 9 17 9 3 1 -26
21 -22 22 5 1 21 1 21 9 -3 5 -16 8 13 9 83 l1 107 -32 0 -33 0 2 -88z"/>
<path d="M527 813 c1 -49 2 -96 3 -105 0 -10 5 -18 11 -18 7 0 10 14 7 35 -4
39 8 35 15 -5 3 -18 5 -14 7 15 l3 40 6 -35 c6 -34 6 -33 16 22 l11 58 -23
-22 c-30 -28 -45 -14 -41 38 l3 39 78 3 c58 2 77 0 77 -10 0 -7 -9 -19 -20
-26 -11 -7 -20 -19 -20 -27 0 -8 -4 -16 -10 -16 -5 -1 -16 -2 -22 -3 -15 -2
-13 -24 8 -68 l15 -33 -4 33 c-4 36 9 44 16 10 4 -20 4 -19 6 5 0 15 5 27 11
27 5 0 7 -14 4 -32 -4 -25 -3 -29 5 -18 9 13 11 12 12 -5 0 -20 0 -20 8 0 8
20 8 20 13 0 5 -17 6 -16 8 5 l2 25 8 -25 c8 -24 8 -24 9 -3 1 16 6 21 16 17
8 -4 15 -13 15 -21 0 -8 4 -12 9 -9 5 3 7 16 5 29 -3 16 -1 14 10 -8 12 -24
15 -26 16 -10 1 20 1 20 11 0 8 -17 9 -17 4 5 -3 14 -7 49 -10 79 -5 61 -27
101 -55 101 -27 0 -25 -24 3 -38 l22 -12 -25 3 c-15 1 -29 11 -35 25 -9 21
-16 22 -110 22 l-100 0 2 -87z m249 -9 c43 -25 64 -56 23 -34 -16 9 -24 8 -38
-4 -23 -21 -30 -20 -58 6 -25 24 -30 44 -10 51 24 10 39 7 83 -19z"/>
<path d="M840 853 c0 -27 5 -55 10 -63 8 -13 10 -13 10 1 0 9 9 28 20 42 11
14 20 35 20 46 0 17 -6 21 -30 21 -29 0 -30 -1 -30 -47z"/>
<path d="M910 884 c0 -11 6 -14 23 -9 38 12 43 25 9 25 -22 0 -32 -5 -32 -16z"/>
<path d="M992 893 c-8 -3 4 -14 29 -26 33 -16 45 -18 60 -9 10 7 33 12 51 12
31 0 31 -1 12 -14 -11 -8 -28 -16 -39 -18 -20 -3 -20 -4 2 -68 l21 -65 1 51
c1 35 7 59 21 77 11 14 20 30 20 36 0 8 26 11 83 9 l82 -3 3 -36 c3 -33 0 -37
-25 -44 -15 -3 -36 -14 -46 -23 -14 -13 -22 -14 -36 -5 -23 15 -31 7 -31 -28
0 -38 18 -46 26 -13 l7 27 13 -29 c12 -27 12 -28 13 -5 1 16 5 21 16 17 12 -4
14 0 9 19 -4 16 -2 25 6 25 6 0 11 -12 10 -27 -1 -16 -1 -35 0 -43 2 -23 18
20 19 53 1 15 6 27 11 27 6 0 8 -15 4 -40 -4 -25 -3 -40 4 -40 16 0 22 27 22
111 l0 79 -177 -1 c-98 0 -184 -3 -191 -6z"/>
<path d="M1372 809 c-3 -96 9 -142 19 -74 l6 40 2 -37 c1 -37 20 -55 22 -20 0
15 2 14 10 -3 6 -13 7 3 4 50 -4 48 -2 64 4 50 5 -11 10 -42 11 -70 1 -54 16
-46 20 10 4 66 -27 102 -54 63 -13 -18 -16 -19 -21 -5 -4 8 -5 26 -3 39 3 20
9 23 57 26 63 4 71 -4 71 -67 0 -33 -3 -42 -14 -38 -19 7 -33 -50 -17 -66 8
-8 11 -6 11 9 0 15 2 16 9 5 7 -11 10 -10 14 5 3 13 5 9 6 -10 0 -16 4 -26 8
-22 4 4 7 52 8 106 l0 100 -85 0 -85 0 -3 -91z"/>
<path d="M1561 744 c0 -114 3 -154 12 -151 8 2 13 50 15 155 3 132 1 152 -13
152 -13 0 -15 -21 -14 -156z"/>
<path d="M1700 795 l0 -105 25 0 25 0 0 105 0 105 -25 0 -25 0 0 -105z"/>
<path d="M2640 795 l0 -105 180 0 c152 0 180 2 180 15 0 12 -28 15 -167 17
l-168 3 -3 65 c-1 36 2 72 7 79 8 12 39 14 170 12 109 -1 161 1 161 8 0 7 -60
11 -180 11 l-180 0 0 -105z"/>
<path d="M975 843 c8 -15 12 -29 10 -31 -8 -8 -35 20 -35 35 0 10 -6 13 -16 9
-9 -3 -18 -6 -20 -6 -9 0 -3 -49 6 -55 6 -3 10 -24 10 -46 0 -23 4 -38 10 -34
5 3 7 13 4 23 -3 9 1 6 9 -7 l15 -24 7 22 c4 12 4 25 1 28 -3 4 -6 -2 -6 -12
0 -10 -3 -16 -6 -12 -9 9 6 67 18 67 6 0 8 -7 4 -15 -7 -18 10 -20 18 -2 3 6
3 -8 1 -33 -2 -25 -2 -37 1 -27 3 9 10 17 15 17 5 0 10 -8 10 -17 1 -10 5 -2
9 17 7 32 7 33 9 7 0 -16 5 -26 10 -23 5 4 12 0 14 -6 3 -7 6 -3 6 10 1 13 5
20 11 17 22 -14 8 19 -26 58 -55 65 -116 92 -89 40z"/>
<path d="M879 803 c-6 -16 -12 -44 -15 -63 -2 -19 -1 -27 2 -17 3 9 11 17 18
17 8 0 13 17 15 45 2 51 -5 57 -20 18z"/>
<path d="M1140 765 c0 -33 3 -45 9 -36 7 11 10 10 14 -5 3 -13 5 -9 6 11 1 23
3 27 11 15 8 -12 10 -9 10 13 0 19 -4 27 -12 24 -7 -2 -18 3 -25 12 -10 13
-12 7 -13 -34z"/>
<path d="M1803 673 c26 -2 68 -2 95 0 26 2 4 3 -48 3 -52 0 -74 -1 -47 -3z"/>
<path d="M2728 673 c50 -2 134 -2 185 0 50 1 9 3 -93 3 -102 0 -143 -2 -92 -3z"/>
<path d="M1521 643 c-11 -12 -15 -13 -22 -1 -6 9 -9 4 -9 -15 0 -27 -1 -27
-17 -11 -11 11 -18 13 -21 5 -6 -18 -42 -13 -43 7 0 13 -2 14 -6 2 -3 -8 -12
-19 -19 -23 -8 -4 -14 -15 -14 -24 0 -12 7 -14 33 -10 17 3 58 9 90 13 50 5
57 9 57 28 0 34 -13 46 -29 29z"/>
<path d="M1290 615 c-1 -32 -3 -36 -10 -20 -8 20 -9 20 -9 0 -1 -18 -2 -18
-18 -2 -16 16 -18 16 -30 -5 -12 -22 -12 -22 -13 -3 -1 20 -1 20 -10 0 -5 -11
-9 -14 -9 -7 -1 10 -6 10 -21 2 -21 -11 -23 -9 -21 30 1 23 0 23 -8 5 -5 -11
-12 -29 -16 -40 -7 -20 -7 -20 -14 -1 -7 17 -8 18 -14 3 -3 -9 -16 -17 -27
-17 -11 0 -21 -6 -21 -12 -1 -7 -5 3 -9 22 -6 28 -8 30 -9 10 -1 -22 -6 -26
-28 -25 -16 1 -33 -3 -40 -8 -17 -12 -33 0 -34 26 -1 12 -5 4 -9 -18 -4 -22
-7 -41 -6 -41 1 -1 421 52 444 56 1 0 2 12 2 28 0 21 -2 24 -10 12 -8 -12 -11
-13 -19 -1 -7 11 -10 11 -17 0 -6 -10 -10 -6 -15 16 -6 28 -7 28 -9 -10z"/>
<path d="M2848 643 c17 -2 47 -2 65 0 17 2 3 4 -33 4 -36 0 -50 -2 -32 -4z"/>
<path d="M2748 613 c18 -2 45 -2 60 0 15 2 0 4 -33 4 -33 0 -45 -2 -27 -4z"/>
<path d="M531 548 c0 -38 -5 -68 -11 -68 -5 0 -10 10 -10 23 0 13 -4 27 -9 33
-5 5 -11 20 -14 34 -2 14 -5 5 -6 -22 -1 -37 -4 -46 -15 -42 -8 3 -17 18 -19
32 -2 15 -4 3 -4 -25 -1 -29 2 -53 6 -53 4 0 104 11 221 25 118 14 218 25 223
25 10 0 8 32 -3 50 -8 13 -11 11 -16 -7 -7 -27 -24 -30 -25 -5 0 14 -2 14 -9
-3 -9 -20 -9 -20 -10 0 -1 20 -1 20 -9 0 -8 -20 -8 -20 -13 0 -5 18 -6 18 -7
-2 0 -13 -5 -23 -10 -23 -5 0 -12 10 -14 23 l-4 22 -2 -22 c0 -13 -8 -23 -16
-23 -8 0 -18 -1 -22 -2 -5 -2 -11 17 -14 42 l-6 45 -1 -41 c-1 -28 -7 -44 -18
-48 -28 -11 -34 -7 -35 22 -1 25 -1 25 -11 -8 l-10 -35 -13 30 -13 30 -1 -28
c-1 -38 -21 -24 -22 16 -1 18 -3 24 -6 14 -3 -10 -11 -30 -19 -45 l-14 -27 -1
35 c-1 19 -5 49 -9 65 -6 23 -8 15 -9 -37z"/>
<path d="M2862 548 c-17 -17 -15 -25 8 -31 13 -3 20 0 20 9 0 8 -5 14 -11 14
-5 0 -7 5 -4 10 8 14 2 13 -13 -2z"/>
<path d="M0 530 c0 -5 23 -10 50 -10 28 0 50 5 50 10 0 6 -22 10 -50 10 -27 0
-50 -4 -50 -10z"/>
<path d="M110 530 c0 -5 20 -10 45 -10 25 0 45 5 45 10 0 6 -20 10 -45 10 -25
0 -45 -4 -45 -10z"/>
<path d="M2290 521 c0 -5 16 -11 35 -13 39 -4 48 6 13 16 -32 8 -48 7 -48 -3z"/>
<path d="M2960 504 c0 -9 -5 -12 -11 -8 -7 4 -10 1 -7 -7 2 -8 17 -15 31 -17
23 -3 27 0 27 22 0 19 -5 26 -20 26 -11 0 -20 -7 -20 -16z"/>
<path d="M2915 491 c-3 -6 -10 -9 -15 -6 -5 3 -13 -3 -19 -12 -6 -10 -11 -15
-11 -11 0 4 -16 0 -35 -8 -40 -16 -48 -17 -41 -5 7 11 -22 36 -31 27 -3 -3 -2
-6 4 -6 5 0 10 -7 10 -15 0 -8 -7 -15 -14 -15 -8 0 -12 4 -9 9 3 5 -1 12 -10
15 -24 9 -28 7 -14 -9 11 -13 9 -15 -11 -11 -13 2 -30 -2 -38 -8 -12 -9 -12
-7 -1 14 7 14 9 22 5 17 -5 -4 -20 0 -34 9 -14 9 -20 11 -13 3 15 -16 16 -33
0 -23 -7 5 -9 2 -5 -9 4 -11 2 -14 -8 -11 -7 3 -12 15 -10 26 4 16 2 18 -10 8
-8 -7 -13 -16 -10 -20 3 -4 -11 -7 -29 -7 -29 1 -33 4 -25 18 12 23 12 26 -5
26 -8 0 -12 -6 -9 -13 7 -19 -16 -27 -35 -13 -9 7 -14 10 -10 5 7 -8 -14 -36
-27 -36 -4 0 -4 12 -1 26 5 17 3 23 -4 19 -5 -3 -10 -1 -10 4 0 6 -5 11 -11
11 -8 0 -8 -5 1 -15 11 -14 7 -19 -12 -16 -4 0 -5 -7 -2 -17 4 -11 -1 -9 -16
8 -21 23 -22 23 -16 4 5 -18 2 -21 -18 -21 -17 0 -26 6 -29 21 -3 14 -5 10 -6
-11 0 -18 -6 -33 -12 -33 -5 0 -7 5 -4 10 3 6 1 10 -4 10 -6 0 -11 -9 -11 -19
0 -17 8 -19 88 -18 48 0 78 3 67 5 -11 2 -24 8 -30 14 -6 6 18 7 68 2 57 -5
77 -4 77 5 0 7 3 10 8 7 12 -7 197 -6 317 3 l110 7 -75 4 c-41 1 -65 5 -53 7
15 3 20 9 17 21 -5 14 -4 15 5 2 5 -8 22 -16 37 -17 26 -2 26 -2 8 20 -10 12
-20 23 -20 25 -1 2 -5 -2 -9 -7z"/>
<path d="M383 430 c0 -36 2 -50 4 -32 2 17 2 47 0 65 -2 17 -4 3 -4 -33z"/>
<path d="M45 460 l-50 -7 53 -1 c29 -1 52 2 52 8 0 6 -1 9 -2 8 -2 0 -25 -4
-53 -8z"/>
<path d="M0 430 c0 -5 23 -10 50 -10 28 0 50 5 50 10 0 6 -22 10 -50 10 -27 0
-50 -4 -50 -10z"/>
<path d="M110 431 c0 -12 26 -21 61 -21 19 0 29 5 29 15 0 11 -12 15 -45 15
-25 0 -45 -4 -45 -9z"/>
<path d="M1560 410 c-36 -6 -26 -7 45 -7 60 -1 80 2 60 7 -36 9 -46 9 -105 0z"/>
<path d="M1775 410 c11 -5 63 -8 115 -8 79 0 88 2 50 9 -62 11 -191 10 -165
-1z"/>
<path d="M2825 410 c-13 -6 16 -8 80 -8 66 0 90 3 70 8 -41 10 -126 10 -150 0z"/>
<path d="M0 400 c0 -4 44 -10 98 -12 91 -5 111 -3 101 6 -9 7 -199 14 -199 6z"/>
<path d="M1410 390 c-50 -11 1 -11 60 -1 41 8 42 8 10 8 -19 0 -51 -3 -70 -7z"/>
<path d="M2675 390 c-13 -6 11 -8 70 -8 60 0 82 3 65 8 -33 11 -110 11 -135 0z"/>
<path d="M1820 380 c94 -11 406 -10 355 0 -22 5 -125 8 -230 8 -138 -1 -172
-3 -125 -8z"/>
<path d="M32 373 c-49 -6 -38 -23 16 -22 34 0 42 3 27 9 -16 6 -10 9 25 12 44
4 44 5 5 5 -22 0 -55 -2 -73 -4z"/>
<path d="M1305 370 l-50 -6 50 -5 c53 -6 59 -5 54 8 -2 4 -26 6 -54 3z"/>
<path d="M1487 373 c-4 -6 42 -13 125 -17 120 -6 150 -4 136 9 -10 11 -255 18
-261 8z"/>
<path d="M2220 370 c0 -9 78 -20 139 -20 30 1 41 3 31 9 -19 11 -170 20 -170
11z"/>
<path d="M2391 376 c2 -2 57 -7 122 -11 83 -5 117 -4 117 4 0 7 -40 11 -122
11 -67 0 -119 -2 -117 -4z"/>
<path d="M2640 371 c0 -15 43 -21 155 -19 l110 1 -119 8 c-65 4 -125 10 -132
13 -8 3 -14 2 -14 -3z"/>
<path d="M2841 376 c10 -8 159 -14 159 -5 0 5 -37 9 -82 9 -45 0 -79 -2 -77
-4z"/>
<path d="M1370 350 c0 -6 47 -10 117 -10 64 0 114 2 112 4 -11 9 -229 15 -229
6z"/>
<path d="M1825 350 c-25 -4 13 -7 100 -7 105 0 126 2 85 7 -67 10 -132 10
-185 0z"/>
<path d="M2105 349 c58 -12 114 -11 95 1 -8 5 -42 9 -75 9 -58 -1 -59 -2 -20
-10z"/>
<path d="M1175 340 c7 -12 99 -12 135 0 17 5 -1 8 -58 9 -53 1 -81 -3 -77 -9z"/>
<path d="M2390 340 c-30 -5 -81 -8 -112 -9 -45 -1 -58 -5 -58 -16 0 -13 20
-15 123 -15 67 0 159 -3 205 -7 74 -5 82 -4 82 12 0 16 -7 17 -62 12 -35 -3
-99 -2 -143 2 -79 8 -78 8 48 9 77 1 127 6 127 12 0 11 -126 11 -210 0z"/>
<path d="M45 330 l50 -7 -50 -2 c-38 -2 -45 -4 -30 -11 11 -5 35 -9 53 -9 26
-1 32 3 32 19 0 18 -6 20 -52 18 l-53 -1 50 -7z"/>
<path d="M110 320 c0 -17 7 -20 40 -20 32 0 38 -3 33 -16 -4 -12 -14 -15 -39
-11 -29 5 -34 3 -34 -13 0 -15 9 -20 43 -23 l42 -4 -42 -1 c-35 -2 -42 -6 -46
-24 l-4 -23 -2 23 c-1 20 -6 22 -51 22 -42 0 -50 -3 -50 -19 0 -26 54 -31 305
-30 l210 2 -80 13 c-44 8 -98 14 -120 13 -22 -1 -57 -1 -77 0 l-38 1 0 65 0
65 -45 0 c-38 0 -45 -3 -45 -20z"/>
<path d="M930 330 c-24 -8 -24 -8 5 -8 17 0 50 3 75 7 l45 8 -50 1 c-27 0 -61
-4 -75 -8z"/>
<path d="M2828 333 c34 -2 88 -2 120 0 31 2 3 3 -63 3 -66 0 -92 -1 -57 -3z"/>
<path d="M800 310 c-111 -21 -102 -25 17 -8 46 7 83 16 83 20 0 4 -1 7 -2 7
-2 -1 -46 -9 -98 -19z"/>
<path d="M1011 314 c-40 -7 -77 -14 -83 -16 -5 -2 90 -3 211 -3 190 0 221 2
221 15 0 13 -22 15 -138 16 -75 0 -170 -5 -211 -12z"/>
<path d="M1478 323 c-91 -3 -108 -6 -108 -20 0 -13 7 -14 38 -9 20 3 106 6
190 6 128 0 152 2 152 15 0 16 3 16 -272 8z"/>
<path d="M1760 313 c0 -10 52 -13 225 -13 173 0 225 3 225 13 0 9 -52 12 -225
12 -173 0 -225 -3 -225 -12z"/>
<path d="M2678 323 c-21 -2 -38 -10 -38 -16 0 -9 50 -13 182 -15 100 -2 180
-1 177 2 -12 12 -263 35 -321 29z"/>
<path d="M484 260 c-189 -33 -222 -41 -139 -33 73 6 219 29 300 48 103 23 9
14 -161 -15z"/>
<path d="M785 279 c-22 -4 -60 -9 -85 -10 l-45 -2 50 -8 c28 -5 83 -12 123
-15 l72 -7 0 27 c0 24 -3 26 -37 25 -21 -1 -56 -5 -78 -10z"/>
<path d="M0 260 c0 -17 7 -20 50 -20 43 0 50 3 50 20 0 17 -7 20 -50 20 -43 0
-50 -3 -50 -20z"/>
<path d="M910 260 c0 -19 7 -20 147 -20 80 0 144 2 142 4 -4 4 -254 36 -279
36 -5 0 -10 -9 -10 -20z"/>
<path d="M1210 259 c74 -10 138 -18 143 -18 14 -2 7 27 -9 33 -9 3 -73 5 -142
5 l-127 -1 135 -19z"/>
<path d="M1530 265 c58 -7 131 -16 163 -20 54 -7 57 -7 57 14 0 21 -3 21 -162
20 l-163 -1 105 -13z"/>
<path d="M1760 260 c0 -19 6 -20 193 -19 l192 1 -120 18 c-66 10 -153 19 -192
19 -67 1 -73 -1 -73 -19z"/>
<path d="M2104 264 c55 -7 102 -11 105 -8 14 14 -33 24 -114 23 l-90 -1 99
-14z"/>
<path d="M2371 261 c156 -24 259 -27 259 -8 0 18 -90 27 -255 26 l-120 -1 116
-17z"/>
<path d="M2720 269 c47 -4 110 -7 140 -6 50 0 48 1 -20 7 -41 4 -104 7 -140 7
-63 0 -62 0 20 -8z"/>
<path d="M1370 255 c0 -13 17 -15 108 -14 100 1 103 2 47 10 -150 20 -155 21
-155 4z"/>
<path d="M2220 255 c0 -12 15 -15 83 -14 67 1 75 3 42 9 -106 20 -125 21 -125
5z"/>
<path d="M2640 249 c0 -11 337 -12 343 -1 3 4 -73 8 -169 8 -96 1 -174 -3
-174 -7z"/>
<path d="M638 243 c18 -2 45 -2 60 0 15 2 0 4 -33 4 -33 0 -45 -2 -27 -4z"/>
<path d="M445 221 l-40 -6 34 -8 c51 -11 71 -9 71 8 0 16 -1 16 -65 6z"/>
<path d="M522 213 c4 -23 62 -31 241 -32 l137 -1 0 25 0 25 -191 0 c-176 0
-190 -1 -187 -17z"/>
<path d="M910 205 l0 -25 225 0 225 0 0 25 0 25 -225 0 -225 0 0 -25z"/>
<path d="M1370 205 l0 -25 190 0 190 0 0 25 0 25 -190 0 -190 0 0 -25z"/>
<path d="M1760 206 l0 -26 228 1 c236 2 233 4 -28 28 -69 7 -142 14 -162 17
-36 5 -38 4 -38 -20z"/>
<path d="M2005 220 c158 -18 205 -18 205 -4 0 11 -26 14 -137 13 -123 -1 -130
-2 -68 -9z"/>
<path d="M2220 216 c0 -16 61 -24 263 -33 l147 -6 0 26 0 27 -205 0 c-166 0
-205 -3 -205 -14z"/>
<path d="M2640 205 l0 -25 180 0 180 0 0 25 0 25 -180 0 -180 0 0 -25z"/>
<path d="M0 154 c0 -11 8 -15 28 -14 15 1 36 2 47 1 16 -1 17 -3 5 -10 -8 -6
-18 -7 -23 -4 -12 7 -57 -6 -57 -17 0 -6 22 -10 49 -10 49 0 50 1 54 33 l4 32
1 -32 2 -33 135 0 135 0 0 35 0 35 -190 0 c-166 0 -190 -2 -190 -16z m347 -21
c3 -9 -21 -12 -94 -12 -105 1 -136 6 -128 18 8 14 218 8 222 -6z"/>
<path d="M398 135 l4 -35 54 0 c53 0 54 1 54 29 0 26 -3 29 -46 35 -71 9 -70
9 -66 -29z"/>
<path d="M710 145 c96 -13 178 -24 183 -24 4 -1 7 10 7 24 l0 25 -182 -1 -183
-1 175 -23z"/>
<path d="M910 146 c0 -16 7 -26 23 -31 12 -4 113 -9 225 -12 l202 -5 0 29 c0
29 -1 30 -61 37 -34 3 -136 6 -225 6 l-164 0 0 -24z m350 -6 c32 -10 29 -11
-110 -15 -118 -4 -150 -1 -150 16 0 11 224 10 260 -1z"/>
<path d="M1455 159 c39 -4 111 -12 160 -18 127 -15 135 -15 135 9 0 19 -6 20
-182 19 -147 -1 -169 -3 -113 -10z"/>
<path d="M1760 147 c0 -22 6 -24 98 -35 53 -7 154 -12 225 -12 l127 0 0 35 0
35 -225 0 -225 0 0 -23z m394 -6 c5 -1 6 -4 2 -8 -9 -10 -162 -16 -203 -8 -95
17 45 28 201 16z"/>
<path d="M2220 137 l0 -37 205 0 205 0 0 24 c0 31 -17 34 -237 42 l-173 7 0
-36z m228 3 c12 0 22 -5 22 -11 0 -5 -5 -7 -10 -4 -6 4 -43 7 -83 7 -61 1 -66
2 -32 8 22 4 49 6 60 4 11 -2 30 -4 43 -4z"/>
<path d="M2770 154 c190 -18 230 -17 230 1 0 13 -26 15 -182 14 l-183 -2 135
-13z"/>
<path d="M520 125 l0 -25 193 1 c105 1 185 3 177 5 -22 5 -332 44 -352 44 -13
0 -18 -8 -18 -25z"/>
<path d="M1370 126 l0 -26 192 0 c105 0 189 3 186 6 -6 5 -166 26 -310 40
l-68 7 0 -27z"/>
<path d="M2640 125 l0 -25 180 0 c113 0 180 4 180 10 0 6 -1 10 -2 10 -2 0
-77 7 -168 15 -91 8 -171 15 -177 15 -7 0 -13 -11 -13 -25z"/>
<path d="M0 80 c0 -11 12 -13 47 -11 11 1 24 -3 28 -8 4 -7 -8 -11 -34 -11
-39 0 -60 -19 -23 -21 9 -1 32 -3 50 -5 31 -4 32 -2 32 31 l0 35 -50 0 c-27 0
-50 -4 -50 -10z"/>
<path d="M110 58 l0 -33 135 0 135 -1 0 33 0 33 -135 0 -135 0 0 -32z m230 1
c0 -5 -47 -9 -105 -9 -58 0 -105 4 -105 8 0 5 47 9 105 9 58 0 105 -3 105 -8z"/>
<path d="M400 55 l0 -35 55 0 55 0 0 35 0 35 -55 0 -55 0 0 -35z"/>
<path d="M528 58 l4 -33 184 0 184 0 0 33 0 32 -188 0 -188 0 4 -32z m222 2
c19 -2 -8 -6 -60 -9 -97 -6 -140 -4 -140 8 0 6 135 7 200 1z"/>
<path d="M910 56 l0 -34 225 2 225 1 0 33 0 32 -225 0 -225 0 0 -34z m392 5
c16 -7 -16 -10 -112 -12 -222 -3 -274 0 -180 10 97 10 267 11 292 2z"/>
<path d="M1370 55 l0 -35 190 0 190 1 0 34 0 35 -190 0 -190 0 0 -35z m280 5
c42 -5 21 -8 -93 -9 -97 -1 -146 2 -142 9 7 11 153 12 235 0z"/>
<path d="M1760 58 l0 -33 225 0 225 0 0 33 0 32 -225 0 -225 0 0 -32z m405 2
c7 -11 -141 -16 -275 -9 l-45 2 50 6 c88 11 264 11 270 1z"/>
<path d="M2220 57 l0 -32 205 0 c113 0 205 3 205 8 0 4 -1 7 -2 7 -2 0 -93 11
-203 25 -110 14 -201 25 -202 25 -2 0 -3 -15 -3 -33z"/>
<path d="M2405 83 c199 -29 225 -30 225 -11 0 17 -10 18 -127 17 -71 -1 -114
-4 -98 -6z"/>
<path d="M2640 71 c0 -13 9 -20 33 -24 47 -9 224 -25 280 -26 l47 -1 0 35 0
35 -180 0 c-170 0 -180 -1 -180 -19z m329 -17 c9 -9 -115 -3 -129 6 -10 7 7 8
55 4 39 -3 72 -8 74 -10z"/>
<path d="M172 3 c37 -2 100 -2 140 0 40 1 10 3 -67 3 -77 0 -110 -1 -73 -3z"/>
<path d="M418 3 c17 -2 47 -2 65 0 17 2 3 4 -33 4 -36 0 -50 -2 -32 -4z"/>
<path d="M613 3 c53 -2 141 -2 195 0 53 1 9 3 -98 3 -107 0 -151 -2 -97 -3z"/>
<path d="M1023 3 c65 -2 168 -2 230 0 62 1 9 3 -118 3 -126 0 -177 -2 -112 -3z"/>
<path d="M1463 3 c53 -2 141 -2 195 0 53 1 9 3 -98 3 -107 0 -151 -2 -97 -3z"/>
<path d="M1873 3 c65 -2 168 -2 230 0 62 1 9 3 -118 3 -126 0 -177 -2 -112 -3z"/>
<path d="M2323 3 c59 -2 154 -2 210 0 56 1 8 3 -108 3 -115 0 -161 -2 -102 -3z"/>
<path d="M2728 3 c50 -2 134 -2 185 0 50 1 9 3 -93 3 -102 0 -143 -2 -92 -3z"/>
</g>
</svg>
