<?xml version="1.0" standalone="no"?>
<!DOCTYPE svg PUBLIC "-//W3C//DTD SVG 20010904//EN"
 "http://www.w3.org/TR/2001/REC-SVG-20010904/DTD/svg10.dtd">
<svg version="1.0" xmlns="http://www.w3.org/2000/svg"
 width="300.000000pt" height="171.000000pt" viewBox="0 0 300.000000 171.000000"
 preserveAspectRatio="xMidYMid meet">
<metadata>
Created by potrace 1.10, written by Peter Selinger 2001-2011
</metadata>
<g transform="translate(0.000000,171.000000) scale(0.100000,-0.100000)"
fill="#000000" stroke="none">
<path d="M913 1683 c-10 -25 -167 -369 -229 -503 -14 -30 -27 -65 -27 -79 -1
-13 -12 -35 -24 -48 -35 -39 -148 -326 -159 -402 -3 -19 -10 -41 -16 -48 -6
-8 -7 -13 -1 -13 6 0 20 28 33 63 12 34 43 114 70 177 26 63 55 138 65 165 10
28 21 53 24 57 3 4 5 -150 3 -342 -1 -193 -1 -350 0 -350 2 0 71 15 154 33
l151 33 33 -28 c19 -15 40 -28 48 -28 11 0 42 -55 42 -75 0 -3 -13 -5 -30 -5
-30 0 -42 -21 -20 -35 19 -12 10 -35 -12 -35 -18 0 -20 -2 -9 -9 8 -5 73 -9
145 -8 72 0 120 4 106 8 -31 9 -13 11 63 9 34 -1 57 3 57 9 0 7 -31 10 -88 7
l-88 -3 30 48 c31 47 31 47 59 32 42 -21 56 -11 25 20 -41 41 -63 35 -93 -23
-26 -51 -45 -64 -45 -31 0 10 -3 40 -7 67 -6 45 -5 48 10 35 12 -9 30 -11 62
-7 28 5 52 3 67 -5 13 -7 66 -16 118 -20 l95 -7 32 30 c35 34 98 118 88 118
-4 0 3 9 16 21 l24 20 -28 -17 c-16 -10 -38 -14 -54 -11 -26 5 -26 4 -8 -9 10
-8 13 -14 6 -14 -6 0 -23 11 -36 24 -18 18 -25 20 -29 10 -3 -8 0 -13 6 -11 7
1 12 -5 13 -13 0 -19 41 -25 61 -9 8 6 17 9 20 6 3 -3 -7 -14 -23 -23 -15 -10
-31 -23 -34 -28 -4 -5 -12 2 -19 15 -7 13 -24 37 -39 54 -14 16 -18 23 -8 16
21 -16 23 1 2 22 -8 8 -11 18 -7 23 4 5 0 3 -10 -4 -12 -10 -18 -10 -24 -1 -4
8 -3 9 4 5 7 -4 12 -2 12 3 0 6 -5 11 -11 11 -5 0 -7 4 -4 10 4 6 -1 7 -11 3
-12 -4 -15 -3 -10 5 5 8 -3 12 -26 12 -25 0 -29 -3 -18 -10 13 -8 13 -10 -2
-10 -26 0 -37 -28 -25 -66 13 -43 -5 -68 -42 -59 -14 4 -30 7 -35 8 -6 1 -18
11 -27 22 -24 27 -6 44 20 21 33 -30 55 -14 47 34 -8 53 17 80 77 81 29 1 36
3 20 7 -12 4 -34 17 -48 30 -44 39 -107 13 -107 -44 0 -30 -22 -42 -43 -24
-19 16 -19 30 -1 30 9 0 16 12 18 27 2 24 11 31 55 47 l53 18 34 -26 c19 -14
38 -26 43 -26 4 0 38 -30 75 -67 59 -58 72 -67 104 -67 28 0 42 7 61 28 40 46
28 67 -45 82 -116 24 -180 79 -213 183 -10 32 -23 55 -30 53 -6 -2 -23 7 -38
20 l-26 23 20 -24 20 -24 -22 12 c-27 14 -68 14 -94 0 -19 -10 -20 -12 -4 -29
14 -16 20 -17 36 -7 30 18 87 -17 116 -72 28 -53 28 -54 4 -41 -43 22 -128 4
-162 -36 -9 -11 -22 -36 -30 -56 -11 -33 -11 -39 6 -58 10 -11 24 -20 32 -20
12 0 11 -5 -3 -28 -15 -26 -15 -31 0 -59 21 -41 73 -60 113 -41 20 9 32 26 43
60 8 27 20 48 27 48 16 0 103 -101 103 -121 0 -35 -21 -39 -181 -29 -85 5
-157 10 -161 10 -4 0 -4 29 -1 65 6 62 4 67 -22 95 l-27 28 7 146 c8 156 14
170 50 113 11 -17 29 -33 40 -35 19 -4 18 -2 -3 21 -41 44 -16 77 60 79 l33 1
-40 18 c-22 10 -55 19 -72 19 -29 0 -33 -3 -33 -26 0 -14 -4 -23 -10 -19 -14
8 -13 48 1 62 7 7 25 9 40 6 25 -5 29 -2 29 16 0 17 -6 21 -31 21 -17 0 -28 4
-24 10 3 6 19 10 34 10 23 0 31 -7 44 -40 10 -26 22 -40 34 -40 29 0 26 90 -4
122 -13 13 -28 39 -34 57 -10 30 -9 35 17 62 33 34 47 36 75 8 26 -26 16 -39
-11 -14 -20 18 -21 18 -41 -2 l-21 -20 20 -39 c11 -22 29 -48 41 -58 18 -16
20 -26 15 -71 -6 -47 -4 -54 14 -64 34 -18 37 -14 39 47 3 72 13 100 51 143
24 28 30 45 34 99 4 49 1 72 -13 95 -9 16 -20 46 -23 66 -4 21 -13 42 -21 49
-9 8 -15 30 -15 56 0 51 -15 58 -25 13 -5 -21 -1 -51 11 -85 20 -58 16 -71
-14 -55 -32 17 -77 13 -103 -9 -27 -22 -19 -24 30 -10 28 8 39 6 64 -12 27
-20 29 -24 24 -68 -7 -54 3 -73 48 -91 26 -11 27 -13 9 -16 -62 -11 -96 38
-77 109 10 37 9 40 -17 53 -17 9 -41 12 -64 8 -42 -7 -37 -20 9 -25 22 -2 31
-9 33 -25 3 -20 -1 -23 -28 -23 -23 0 -42 -10 -67 -35 -37 -37 -40 -59 -18
-130 5 -17 -1 -23 -30 -34 -20 -7 -39 -11 -41 -8 -3 2 11 148 31 323 19 175
35 322 35 326 0 4 -7 8 -15 8 -19 0 -21 -11 -45 -245 -33 -339 -39 -424 -45
-615 -8 -274 -10 -285 -57 -329 -22 -20 -52 -42 -67 -49 -21 -10 -22 -10 -7 0
10 7 31 23 47 36 l28 23 -24 45 c-13 25 -21 52 -18 60 4 11 -5 14 -43 13 l-49
-2 40 -6 c37 -6 38 -7 15 -15 -14 -5 -37 -20 -52 -34 -25 -23 -26 -26 -10 -39
15 -12 14 -13 -13 -9 -16 2 -38 -1 -48 -6 -14 -7 -24 -5 -38 11 -12 13 -27 18
-43 15 -17 -3 -28 2 -35 13 -8 16 -11 15 -20 -10 -18 -47 -14 -67 13 -67 30 0
42 15 19 24 -12 5 -13 10 -6 17 13 13 33 3 33 -16 0 -15 60 -12 130 6 30 8 38
6 60 -16 l25 -25 -30 0 c-22 0 -26 -3 -17 -12 17 -17 15 -26 -5 -30 -10 -2
-23 3 -29 11 -10 13 -24 13 -110 -3 -55 -9 -108 -19 -119 -22 -20 -5 -20 -1
-15 348 4 255 8 359 17 373 7 11 69 140 137 288 113 243 122 267 102 267 -14
0 -25 -9 -33 -27z m478 -533 c21 -12 26 -45 8 -56 -7 -4 -20 4 -30 17 -32 42
-21 62 22 39z m237 -517 c50 -7 62 -21 37 -40 -30 -21 -69 -16 -98 15 -33 34
-34 46 -4 38 12 -3 41 -9 65 -13z m-599 -75 c5 -13 6 -27 4 -31 -7 -11 -43 23
-43 40 0 22 30 15 39 -9z m139 -10 c19 -19 14 -25 -18 -20 -25 3 -28 7 -19 18
14 17 22 17 37 2z m-16 -45 c26 -23 22 -46 -11 -82 -22 -23 -38 -31 -63 -31
-35 1 -93 39 -70 47 6 3 10 8 7 12 -2 5 14 14 36 21 43 15 67 4 56 -24 -8 -21
-44 -20 -56 2 -6 9 -11 12 -11 6 0 -6 7 -17 16 -24 18 -16 71 -1 67 18 -2 7 3
12 11 12 8 0 18 5 21 10 4 7 -2 9 -18 5 -17 -5 -26 -2 -31 10 -13 35 15 46 46
18z m6 -247 c10 -23 9 -24 -34 -28 -37 -3 -47 0 -59 19 -14 21 -13 22 28 26
23 2 45 4 48 5 3 1 11 -9 17 -22z"/>
<path d="M1639 1668 c-6 -24 -13 -49 -15 -55 -2 -7 -10 -10 -19 -7 -21 9 -19
-9 6 -40 l21 -27 -23 -25 c-13 -14 -34 -24 -51 -24 -39 0 -71 -51 -62 -100 10
-59 23 -65 51 -22 14 20 46 54 70 76 57 50 68 78 53 132 -9 30 -9 56 -2 88 13
62 -12 65 -29 4z"/>
<path d="M1692 1698 c-7 -7 -12 -19 -12 -27 0 -11 4 -10 20 4 21 19 26 35 12
35 -4 0 -13 -5 -20 -12z"/>
<path d="M1717 1665 l-37 -44 17 -42 c13 -32 14 -48 6 -70 -11 -27 -10 -27 16
-16 39 16 61 38 83 80 12 25 31 44 54 53 31 13 48 44 24 44 -16 0 -90 -39 -90
-48 0 -4 -9 -18 -19 -32 l-19 -24 -12 25 c-10 22 -8 33 9 67 35 69 22 72 -32
7z"/>
<path d="M1901 1661 c6 -18 10 -33 8 -34 -2 -2 -21 -10 -41 -20 -25 -11 -42
-28 -51 -49 -8 -18 -13 -34 -12 -36 6 -8 117 53 130 71 21 29 20 88 0 81 -8
-4 -22 -1 -30 6 -13 11 -13 8 -4 -19z"/>
<path d="M1970 1664 c0 -10 -3 -29 -6 -41 -6 -22 -5 -22 27 -12 32 10 85 56
76 65 -2 3 -19 -3 -36 -13 -31 -17 -32 -17 -46 1 -15 20 -15 20 -15 0z"/>
<path d="M2070 1647 c0 -18 -50 -57 -74 -57 -13 0 -31 -6 -38 -13 -30 -29 -84
-55 -266 -128 -13 -5 -21 -13 -17 -18 3 -5 0 -13 -6 -17 -8 -4 -9 -3 -5 4 4 7
3 12 -3 12 -14 0 -48 -51 -57 -84 -5 -21 -9 -25 -16 -14 -7 9 -8 5 -5 -14 2
-15 0 -25 -4 -22 -5 3 -10 -7 -10 -23 l-1 -28 -8 30 c-7 29 -8 28 -9 -10 0
-23 -7 -47 -13 -54 -11 -11 -9 -12 7 -3 18 9 58 17 181 37 25 4 35 14 54 54
23 49 51 71 94 71 16 0 27 10 39 35 9 19 21 35 25 35 5 0 14 11 20 25 18 40
-6 31 -54 -20 -25 -27 -50 -45 -64 -45 -21 0 -55 -30 -107 -93 -16 -20 -31
-27 -57 -27 -20 0 -36 3 -36 8 0 4 10 25 23 47 19 34 41 49 148 105 70 36 141
77 158 93 18 15 36 25 41 22 14 -9 -3 -60 -28 -83 -13 -13 -22 -26 -18 -29 3
-3 15 2 26 12 24 21 34 17 16 -7 -6 -9 -23 -18 -36 -20 -18 -2 -26 -12 -33
-38 -12 -47 -24 -60 -56 -60 -15 0 -32 -5 -39 -12 -8 -8 -12 -8 -12 -1 0 12
23 23 50 23 9 0 24 7 31 17 13 14 12 15 -6 6 -11 -6 -33 -15 -50 -20 -26 -8
-30 -13 -27 -38 2 -23 0 -27 -8 -15 -8 12 -10 13 -10 1 0 -8 -6 -22 -14 -30
-13 -14 -6 -16 76 -18 89 -2 92 -2 157 36 80 47 130 99 165 168 38 76 64 93
148 93 49 0 80 6 108 20 22 11 54 20 72 21 l33 1 -32 10 c-26 9 -42 7 -75 -6
-26 -9 -70 -15 -109 -15 -43 1 -77 -5 -97 -15 -28 -15 -33 -15 -61 2 -38 21
-38 25 -5 47 35 22 25 29 -23 15 -36 -11 -93 -73 -93 -100 0 -14 5 -13 42 10
41 25 60 25 89 0 l24 -20 -32 11 c-60 20 -121 -32 -108 -92 5 -24 11 -30 26
-26 10 3 19 1 19 -4 0 -8 -32 -14 -54 -10 -5 1 -25 -14 -45 -33 -35 -34 -147
-93 -157 -83 -3 3 14 14 38 25 24 11 67 44 97 73 l53 53 -5 54 c-5 46 -2 60
19 91 22 34 98 102 79 71 -6 -9 -3 -10 11 -2 11 5 26 12 34 15 8 3 -15 5 -52
4 -38 0 -68 -5 -68 -10z m-141 -113 c-7 -9 -65 -42 -130 -74 -127 -64 -163
-97 -181 -166 -7 -24 -15 -44 -19 -44 -10 0 4 47 25 88 19 37 20 46 4 36 -8
-4 -10 -3 -5 2 5 5 9 7 10 4 1 -3 16 5 32 16 17 12 75 44 130 72 55 28 109 57
120 66 26 20 31 20 14 0z m241 -38 c0 -15 -32 -76 -40 -76 -14 0 -12 54 2 68
11 11 38 17 38 8z m-124 -138 c-16 -24 -90 -89 -116 -102 -8 -4 5 10 29 31 25
21 56 50 70 66 31 33 36 35 17 5z"/>
<path d="M1570 1577 c0 -18 -6 -29 -17 -33 -10 -3 -31 -12 -47 -20 -28 -14
-30 -14 -50 11 l-21 26 3 -45 c2 -26 11 -51 22 -61 17 -15 19 -14 40 19 18 30
28 36 55 36 49 0 61 20 35 62 l-20 33 0 -28z"/>
<path d="M2476 1544 c-4 -9 -13 -14 -22 -10 -8 3 -12 2 -9 -4 9 -15 -36 -33
-91 -34 -55 -1 -77 -14 -106 -61 -22 -37 -24 -25 -2 16 19 37 67 59 128 59 25
0 47 4 50 8 2 4 -27 5 -65 1 -86 -8 -108 -23 -157 -109 l-36 -65 28 19 c16 10
55 20 90 23 33 3 78 14 98 24 21 11 49 19 63 19 16 0 24 4 19 11 -4 7 -22 8
-48 5 -115 -18 -136 -18 -130 -3 7 19 55 39 86 37 36 -3 39 -2 108 40 61 38
63 40 34 40 -20 0 -34 -6 -38 -16z"/>
<path d="M2405 1406 l-30 -13 25 -8 c14 -4 33 -15 44 -24 18 -15 18 -15 12 7
-5 14 -3 29 4 37 10 12 9 15 -6 15 -11 -1 -32 -7 -49 -14z"/>
<path d="M2291 1369 c-35 -4 -65 -10 -67 -12 -3 -2 17 -12 43 -22 44 -17 51
-17 90 -3 24 9 43 12 43 7 0 -5 9 -9 20 -9 29 0 14 27 -22 39 -17 6 -34 10
-37 10 -3 -1 -35 -5 -70 -10z"/>
<path d="M2176 1328 c3 -4 -4 -12 -14 -16 -24 -9 -186 -162 -171 -162 5 0 7
-5 3 -11 -4 -7 -1 -10 7 -7 8 3 22 -2 32 -10 16 -15 17 -14 11 4 -6 15 -2 13
20 -8 17 -16 25 -32 20 -39 -4 -8 -3 -9 4 -5 7 4 12 11 12 15 0 17 -57 80 -67
73 -5 -4 23 25 63 64 39 40 82 77 95 84 13 6 2 -8 -26 -32 -116 -100 -110 -94
-96 -112 19 -22 54 -20 77 5 32 36 80 51 139 44 87 -11 169 26 208 94 24 41 9
39 -43 -4 -51 -42 -90 -54 -198 -57 l-83 -3 27 23 c18 16 34 22 48 17 12 -3
46 -8 76 -11 51 -5 54 -4 36 10 -11 9 -28 16 -39 16 -10 0 -28 5 -40 12 -27
15 -108 28 -101 16z"/>
<path d="M2366 1319 c-14 -9 -16 -13 -5 -20 14 -8 39 6 39 22 0 12 -11 11 -34
-2z"/>
<path d="M2484 1270 c-16 -22 -37 -42 -46 -46 -10 -3 -18 -9 -18 -14 0 -14
-58 -22 -144 -22 -75 1 -84 -1 -119 -30 -21 -16 -45 -27 -53 -24 -12 4 -12 2
-4 -15 6 -11 15 -17 20 -14 9 6 3 -66 -11 -111 -5 -17 -7 -38 -3 -47 3 -10 1
-17 -5 -17 -6 0 -11 -6 -11 -14 0 -21 -40 -67 -52 -60 -7 4 -8 2 -4 -5 9 -14
-41 -64 -55 -56 -5 4 -9 8 -9 11 0 3 4 3 9 0 4 -3 14 12 21 34 7 22 16 37 21
35 4 -3 5 5 2 17 -4 23 -4 23 13 3 14 -16 16 -17 10 -2 -18 51 -18 53 -1 32
17 -20 17 -20 10 3 -4 13 -10 45 -14 70 l-7 47 -11 -62 c-15 -80 -43 -132 -99
-187 -87 -83 -210 -126 -301 -106 -56 13 -79 25 -117 59 -25 21 -23 18 8 -21
40 -50 62 -60 164 -73 37 -5 52 -3 52 5 0 7 8 9 21 5 16 -5 19 -4 14 5 -5 9
-1 10 15 5 15 -5 20 -4 16 4 -5 7 -1 9 8 5 24 -9 20 -12 -31 -27 -33 -10 -47
-19 -48 -33 -1 -10 -4 -25 -6 -33 -8 -28 19 -20 96 29 43 27 88 50 100 49 11
0 14 -3 7 -6 -6 -2 -10 -9 -7 -13 3 -5 -8 -16 -24 -25 -35 -18 -45 -19 -35 -4
4 8 0 8 -15 0 -25 -14 -28 -22 -3 -15 14 5 13 3 -2 -7 -11 -6 -29 -13 -40 -14
-32 -4 -33 -4 -33 -19 0 -15 27 -6 117 39 44 22 76 23 64 3 -4 -7 -2 -8 5 -4
8 5 9 12 2 20 -7 9 -3 12 19 11 27 0 28 -1 12 -19 -25 -27 -93 -69 -119 -72
-26 -3 -83 -41 -83 -55 0 -6 -5 -7 -12 -3 -6 4 -8 3 -5 -3 7 -11 -40 -56 -60
-59 -24 -4 -13 13 40 63 61 58 143 106 121 72 -4 -8 0 -8 15 0 25 14 28 22 4
15 -15 -5 -15 -3 1 10 24 19 40 21 30 4 -4 -7 -3 -9 1 -5 5 4 10 14 11 22 4
25 -135 -54 -194 -111 -28 -27 -59 -49 -67 -48 -9 1 -24 -15 -36 -39 -23 -46
-63 -93 -93 -109 -14 -8 -17 -7 -10 4 5 8 -1 7 -18 -4 -14 -9 -50 -20 -79 -24
-30 -4 -63 -10 -74 -15 -31 -12 64 -11 167 2 l88 12 20 45 c11 24 20 51 20 60
0 8 3 12 7 9 3 -4 15 0 25 10 29 26 21 5 -18 -48 -20 -27 -33 -49 -31 -49 3 0
30 33 61 74 61 81 143 148 181 148 15 0 22 5 18 12 -3 6 -2 8 2 3 5 -4 20 3
33 15 14 13 22 18 18 11 -3 -6 -2 -14 2 -17 5 -3 14 5 19 17 13 29 62 87 73
87 5 0 -21 -43 -56 -96 -68 -101 -73 -118 -49 -163 15 -30 33 -41 68 -41 13 0
38 -11 57 -24 63 -42 132 -64 220 -70 47 -3 109 -9 138 -12 36 -5 52 -3 52 5
0 6 -17 11 -40 11 -22 0 -40 4 -40 8 0 13 -94 32 -156 32 -44 0 -70 8 -134 40
-44 22 -88 40 -99 40 -27 0 -51 27 -51 56 0 33 99 176 119 172 9 -2 25 -19 38
-38 46 -72 56 -82 102 -102 25 -10 54 -27 64 -35 9 -9 19 -14 21 -12 9 9 -76
89 -100 95 -13 3 -24 9 -24 13 0 4 -15 32 -33 62 -18 30 -33 58 -34 62 -1 5
-5 12 -9 15 -4 4 -4 1 1 -7 5 -9 3 -12 -6 -9 -8 3 -14 10 -14 16 0 5 -4 14 -9
19 -5 5 -6 2 -1 -6 5 -9 3 -12 -6 -9 -8 3 -13 10 -12 16 2 6 -4 9 -12 6 -8 -4
-12 -10 -9 -15 3 -5 -6 -5 -20 1 -41 15 -120 -4 -188 -45 -81 -49 -76 -47 -82
-36 -3 4 4 17 16 27 12 11 18 13 14 7 -12 -21 2 -15 65 27 32 23 59 38 59 35
0 -3 13 9 29 27 28 31 33 33 91 31 50 -2 62 1 67 15 3 9 13 25 21 35 8 9 11
17 7 17 -4 0 0 9 9 19 10 11 19 26 20 35 1 9 15 30 32 47 16 18 25 30 19 28
-5 -2 -39 -35 -75 -74 -35 -38 -48 -54 -27 -36 20 19 37 30 37 23 0 -13 -75
-75 -95 -78 -22 -3 -19 4 23 53 92 109 129 143 156 143 15 0 39 7 54 16 25 15
26 15 7 0 -17 -14 -18 -18 -5 -26 22 -14 45 -12 79 7 29 17 31 17 61 -6 l32
-23 -7 30 c-5 23 -2 33 11 40 25 14 1 24 -30 12 -16 -6 -27 -6 -31 0 -7 11
-45 13 -69 4 -9 -3 -13 -11 -9 -17 3 -5 2 -8 -3 -4 -16 10 -128 -25 -146 -46
-13 -14 -18 -16 -18 -6 0 11 -2 11 -10 -1 -11 -17 -13 -1 -4 24 3 9 11 13 17
9 7 -4 8 11 4 46 -6 49 -5 52 11 40 9 -7 14 -10 10 -5 -4 5 4 24 19 42 14 19
21 34 15 34 -12 0 -27 -19 -27 -34 0 -5 -7 -11 -15 -13 -13 -4 -13 -3 0 6 13
10 13 11 0 11 -10 0 -7 7 10 20 15 11 33 17 44 14 10 -4 16 -2 13 2 -3 5 32 9
76 10 63 0 91 5 123 21 46 24 118 99 109 113 -9 14 -8 14 -41 -30z m-849 -893
c-14 -30 -37 -62 -50 -71 -23 -15 -22 -12 8 27 18 24 39 58 46 76 8 17 16 30
18 27 2 -2 -7 -29 -22 -59z"/>
<path d="M2060 1255 c-18 -19 -37 -32 -42 -29 -5 3 -15 0 -23 -6 -8 -7 -38
-18 -67 -26 l-53 -13 45 5 c25 3 56 13 68 21 13 8 26 13 28 10 8 -8 -26 -29
-59 -37 -32 -8 -32 -8 -4 -9 39 -1 56 9 105 68 50 59 51 66 2 16z"/>
<path d="M2488 1228 c-37 -38 -59 -51 -109 -65 -53 -15 -59 -18 -38 -24 24 -7
23 -7 -4 -8 -15 -1 -41 6 -57 14 -16 8 -36 12 -44 9 -23 -9 -76 -97 -76 -126
l0 -26 52 20 c69 26 109 47 134 70 31 28 90 35 114 13 27 -25 25 -7 -2 23
l-23 24 38 30 c33 26 75 86 65 92 -2 1 -24 -19 -50 -46z m-204 -104 c9 -3 16
-10 16 -15 0 -8 -71 -49 -85 -49 -10 0 -5 26 11 48 16 23 30 27 58 16z"/>
<path d="M1794 1216 c-24 -11 -35 -11 -45 -3 -11 10 -11 9 -1 -4 10 -14 10
-18 -3 -23 -9 -3 -14 -2 -11 3 3 5 -1 11 -8 14 -13 5 -13 1 -1 -34 8 -22 10
-39 5 -39 -6 0 -10 7 -10 16 0 8 -5 12 -11 8 -6 -3 -9 -15 -6 -25 3 -11 2 -17
-2 -14 -5 2 -6 -7 -3 -21 8 -42 -29 -26 -56 24 -13 24 -35 50 -47 58 -25 16
-65 11 -65 -8 0 -6 -7 -19 -16 -29 -14 -16 -14 -21 6 -58 22 -43 71 -81 104
-81 11 0 30 10 42 21 25 24 57 20 48 -6 -5 -12 1 -15 27 -15 24 0 30 3 20 9
-8 5 -11 16 -7 26 5 14 9 15 21 5 12 -10 15 -10 15 2 0 19 38 50 52 42 7 -4 8
-3 4 4 -8 14 30 36 50 28 20 -8 17 -26 -8 -53 -35 -38 -12 -26 40 20 26 24 47
48 44 55 -5 15 -86 16 -115 0 -12 -6 -45 -29 -73 -50 -81 -61 -102 -44 -38 30
32 38 66 59 48 30 -4 -7 -3 -8 5 -4 6 4 9 11 6 16 -3 5 0 12 6 16 9 5 7 11 -6
21 -15 10 -15 13 -4 13 8 0 21 -6 29 -12 12 -11 12 -10 1 4 -10 14 -9 17 11
21 19 3 19 4 3 5 -11 1 -34 -5 -51 -12z m0 -22 c12 -5 10 -10 -12 -29 -32 -28
-55 -16 -27 15 21 23 18 22 39 14z m-169 -74 c9 -18 13 -40 9 -52 -5 -16 -3
-20 9 -15 20 8 29 -3 16 -20 -15 -17 -43 -17 -79 2 -23 12 -30 22 -30 46 0 69
47 93 75 39z"/>
<path d="M1683 1195 c1 -11 -3 -20 -10 -20 -6 0 -15 -4 -20 -9 -5 -5 -3 -6 5
-2 15 9 15 1 1 -27 -9 -20 -9 -21 4 -4 10 12 16 14 19 6 2 -6 9 0 15 14 9 20
9 29 -2 44 -13 17 -13 17 -12 -2z"/>
<path d="M726 1100 c12 -5 43 -12 69 -15 33 -6 43 -10 34 -17 -10 -6 -7 -7 9
-3 30 9 217 -26 200 -37 -17 -10 -71 -10 -64 0 3 5 -9 7 -27 4 -25 -3 -29 -1
-17 7 12 8 8 10 -15 5 -16 -3 -63 1 -103 9 -40 8 -75 10 -78 5 -7 -11 2 -13
131 -33 61 -9 125 -20 143 -25 28 -7 33 -6 28 6 -3 8 -1 14 4 14 6 0 11 -87
13 -212 l2 -213 5 220 c3 169 5 201 10 140 l7 -80 -1 84 -1 85 -165 32 c-91
18 -174 33 -185 33 -19 0 -19 -1 1 -9z"/>
<path d="M1458 1083 c-19 -46 -22 -192 -4 -234 18 -44 60 -95 90 -110 17 -10
19 -9 9 2 -13 13 -18 91 -7 102 4 3 14 2 23 -3 14 -7 16 -18 11 -64 -6 -51 0
-66 24 -66 2 0 0 19 -5 43 -12 63 -11 67 15 67 33 0 35 -6 26 -68 l-7 -53 46
3 46 3 -3 40 c-2 22 -8 45 -14 50 -7 7 -9 -5 -5 -38 4 -45 3 -48 -17 -45 -17
2 -22 11 -24 49 -3 46 -2 47 30 52 18 3 42 8 53 11 18 6 20 3 20 -44 0 -34 -6
-55 -15 -61 -11 -8 -9 -9 9 -4 46 14 140 76 175 117 47 54 100 194 66 173 -5
-3 -10 -1 -10 4 0 6 5 11 10 11 15 0 12 77 -3 83 -18 7 -31 -2 -46 -31 -7 -12
-16 -20 -20 -17 -5 2 -15 -3 -22 -13 -13 -16 -13 -16 6 -2 19 14 19 14 6 -3
-8 -10 -19 -16 -25 -14 -6 2 -29 -6 -51 -17 -32 -16 -59 -21 -130 -21 -113 0
-136 6 -181 53 -28 28 -34 31 -23 12 7 -14 12 -29 11 -33 -1 -5 2 -6 8 -2 6 3
14 -2 18 -12 4 -10 14 -18 22 -18 17 0 17 -2 6 -67 -6 -34 -12 -45 -22 -41 -8
3 -14 17 -14 32 0 20 -2 23 -10 11 -8 -13 -11 -11 -16 8 -4 12 -10 22 -15 22
-5 0 -9 11 -9 25 0 14 -4 25 -9 25 -13 0 -21 -39 -9 -46 5 -3 7 -12 4 -19 -2
-7 2 -16 10 -19 8 -3 14 -15 14 -26 0 -12 4 -19 9 -16 17 11 28 -19 23 -67 -3
-39 -6 -46 -18 -36 -8 6 -14 30 -15 53 -1 33 -2 36 -8 16 -8 -31 -22 -13 -23
30 -1 16 -5 27 -10 24 -14 -9 -9 103 5 118 7 7 13 22 13 33 0 11 4 30 8 43 11
32 -12 28 -26 -5z m542 -35 c0 -6 -8 -20 -17 -31 -16 -17 -17 -19 -1 -28 10
-5 15 -16 11 -25 -5 -13 -9 -12 -25 5 -20 22 -29 26 -27 14 4 -23 -3 -35 -15
-30 -8 3 -16 -2 -19 -14 -8 -30 -27 -22 -27 11 0 20 5 30 15 30 8 0 15 5 15
10 0 6 6 10 13 10 6 0 23 16 37 34 24 32 40 38 40 14z m-357 -85 c4 -7 -13
-112 -19 -121 -1 -2 -12 2 -24 8 -20 10 -21 17 -15 58 8 57 11 62 35 62 10 0
21 -3 23 -7z m216 -64 c-7 -4 -17 -5 -21 -3 -15 9 -8 53 10 63 14 8 17 5 20
-21 2 -18 -2 -34 -9 -39z m-153 24 c-3 -21 -6 -51 -6 -66 0 -25 -3 -28 -27
-25 -26 3 -28 6 -25 43 4 73 10 85 38 85 25 0 26 -2 20 -37z m64 -18 c0 -35
-4 -47 -21 -56 -30 -15 -38 -1 -32 54 5 41 8 47 29 47 22 0 24 -4 24 -45z m50
26 c0 -11 3 -26 6 -34 3 -8 -2 -17 -12 -21 -22 -8 -24 -6 -31 38 -5 32 -3 36
16 36 14 0 21 -6 21 -19z m155 9 c3 -5 1 -19 -6 -31 -9 -17 -13 -19 -20 -8
-14 22 -11 49 5 49 8 0 18 -4 21 -10z m-35 -40 c11 -21 -2 -60 -19 -60 -16 0
-30 57 -18 69 16 16 25 14 37 -9z m-62 -37 c-10 -12 -4 -17 15 -14 11 2 8 -22
-7 -41 -20 -26 -31 -22 -43 16 -12 38 -3 55 28 53 13 -1 15 -4 7 -14z m-65
-105 c-21 -24 -33 -8 -33 44 0 25 6 40 18 47 15 8 18 4 24 -32 6 -31 4 -45 -9
-59z"/>
<path d="M2366 1081 c-22 -24 -10 -32 48 -34 39 -2 44 1 43 18 0 11 -6 23 -12
27 -19 14 -62 8 -79 -11z"/>
<path d="M2056 1064 c-8 -20 -7 -74 2 -96 4 -10 7 12 7 47 0 36 -1 65 -1 65
-1 0 -5 -7 -8 -16z"/>
<path d="M723 960 c0 -41 2 -58 4 -37 2 20 2 54 0 75 -2 20 -4 3 -4 -38z"/>
<path d="M740 981 c0 -11 28 -41 39 -41 20 0 18 14 -3 31 -27 21 -36 24 -36
10z"/>
<path d="M2185 960 c3 -5 23 -10 43 -10 28 0 33 3 22 10 -20 13 -73 13 -65 0z"/>
<path d="M2341 957 c-6 -8 -23 -13 -38 -12 -19 2 -20 1 -5 -2 24 -5 52 -43 31
-43 -7 0 -17 7 -23 15 -6 8 -34 17 -62 21 l-50 6 -37 -68 c-21 -38 -45 -80
-55 -93 l-17 -24 36 5 c20 4 57 16 82 27 25 12 54 21 65 21 10 0 32 13 48 30
31 32 66 38 109 18 14 -6 25 -19 25 -28 0 -28 -11 -30 -35 -4 -28 31 -37 30
-85 -5 l-40 -29 46 -11 c51 -13 96 -39 89 -51 -3 -4 2 -22 11 -39 9 -18 14
-41 11 -52 -3 -10 -1 -17 4 -13 16 9 10 108 -7 132 -15 22 -15 25 5 46 12 12
21 30 21 38 0 23 -45 56 -86 64 -28 5 -32 9 -23 20 7 9 20 12 31 8 17 -5 18
-3 9 15 -13 24 -43 28 -60 8z m-45 -58 c13 -11 13 -14 0 -27 -15 -16 -118 -53
-125 -46 -3 2 5 25 18 50 21 45 23 46 57 41 20 -3 42 -11 50 -18z"/>
<path d="M810 913 c-29 -10 -70 -57 -70 -79 0 -27 15 -40 60 -51 64 -17 48
-73 -21 -73 -21 0 -41 -4 -44 -10 -3 -6 4 -10 18 -10 14 0 44 -7 67 -15 48
-17 108 -19 130 -5 10 7 -6 10 -55 10 -38 0 -77 5 -85 11 -11 7 -1 9 37 6 29
-2 50 0 47 5 -3 5 -9 6 -14 3 -4 -2 -12 13 -17 34 l-10 39 42 -5 c81 -8 97 53
30 115 -34 31 -74 40 -115 25z m45 -13 c-4 -6 6 -10 22 -10 20 0 31 -7 40 -26
7 -15 10 -31 6 -37 -3 -5 1 -13 8 -18 29 -18 -59 -9 -105 12 -45 19 -53 38
-18 40 12 0 13 2 4 6 -9 4 -5 11 15 23 34 22 36 23 28 10z"/>
<path d="M1007 863 c-4 -3 -2 -12 5 -20 8 -11 7 -17 -8 -28 -10 -8 -14 -15 -8
-15 17 0 34 23 34 47 0 22 -10 30 -23 16z"/>
<path d="M751 767 c-16 -16 -13 -47 5 -47 10 0 14 6 10 15 -3 8 -1 15 3 15 5
0 11 -6 14 -12 2 -7 7 -10 11 -7 9 9 -3 36 -19 42 -7 3 -18 0 -24 -6z"/>
<path d="M2252 763 c-6 -3 -9 -10 -6 -15 5 -8 -6 -9 -34 -5 -25 3 -45 1 -49
-6 -4 -6 0 -8 10 -4 9 3 19 2 22 -3 4 -6 -4 -10 -16 -10 -38 0 -2 -28 57 -46
44 -12 54 -20 54 -37 0 -32 11 -45 45 -52 59 -13 66 -17 75 -38 9 -19 9 -18 7
8 -1 23 -10 34 -39 50 -31 16 -88 82 -88 100 0 3 11 5 25 5 25 0 45 -16 78
-64 30 -44 36 -29 12 32 -20 47 -29 59 -57 68 -50 17 -82 22 -96 17z"/>
<path d="M981 734 c-25 -32 -16 -47 32 -58 28 -7 28 -6 25 36 -4 53 -26 61
-57 22z"/>
<path d="M2073 719 c21 -5 47 -14 58 -19 10 -6 19 -8 19 -5 0 10 -68 35 -92
34 -15 -1 -9 -4 15 -10z"/>
<path d="M2072 705 c3 -4 21 -14 39 -23 23 -12 42 -35 62 -75 22 -42 40 -63
66 -76 42 -22 66 -46 80 -81 l10 -25 0 26 c1 14 -4 30 -10 36 -21 21 1 35 45
29 38 -6 40 -5 22 9 -11 8 -31 15 -45 15 -18 0 -22 3 -13 9 10 6 7 10 -12 13
-14 3 -26 1 -26 -4 0 -25 -19 7 -25 41 -6 36 -9 40 -53 51 -26 6 -52 16 -58
21 -13 11 -91 44 -82 34z"/>
<path d="M740 621 c0 -21 36 -35 47 -19 3 7 1 8 -5 4 -7 -4 -12 -1 -12 7 0 8
-7 17 -15 21 -10 3 -15 -1 -15 -13z"/>
<path d="M1905 520 c-30 -32 -57 -42 -34 -13 9 11 2 9 -21 -7 -40 -27 -96 -80
-85 -80 4 0 3 -6 -2 -12 -6 -7 -13 -26 -17 -43 -8 -34 -55 -110 -63 -101 -3 2
4 18 16 34 12 17 21 33 21 38 0 4 -13 -12 -30 -34 -34 -47 -66 -67 -127 -77
-24 -4 -45 -11 -49 -16 -3 -5 -2 -9 1 -9 25 0 164 25 227 41 l77 19 122 -25
c118 -24 167 -27 97 -7 -18 6 -56 19 -83 29 -28 11 -55 18 -61 16 -26 -9 -78
87 -54 102 5 3 10 -2 11 -12 0 -12 2 -13 6 -5 4 10 9 7 17 -10 6 -12 29 -32
51 -43 22 -12 51 -28 65 -37 14 -9 60 -19 104 -22 43 -4 93 -9 110 -12 50 -7
2 12 -67 27 -36 8 -62 19 -68 31 -14 27 -63 50 -77 36 -8 -8 -15 -8 -24 -1 -7
6 -20 9 -29 8 -12 -2 -15 3 -12 19 4 17 3 18 -6 6 -9 -12 -11 -9 -12 15 0 25
-2 26 -8 10 -7 -16 -9 -14 -14 15 -4 18 -5 35 -2 38 3 3 5 -3 6 -14 0 -12 4
-9 9 10 11 37 3 51 -18 34 -15 -12 -16 -11 -3 4 7 10 17 16 21 13 13 -8 55 44
44 55 -7 7 -20 0 -39 -20z m-62 -52 c-24 -27 -53 -82 -53 -100 1 -7 7 2 15 20
19 43 24 41 18 -7 -3 -25 0 -50 10 -70 16 -32 8 -42 -13 -16 -7 8 -16 13 -20
10 -4 -2 -5 8 -3 23 3 23 2 24 -6 7 -8 -16 -10 -12 -10 23 -1 24 4 53 10 65
15 30 50 67 62 67 6 0 1 -10 -10 -22z m177 -155 c0 14 33 -10 36 -27 2 -13 -1
-14 -19 -5 -35 19 -47 31 -41 41 4 6 10 5 15 -3 5 -8 9 -10 9 -6z"/>
<path d="M827 500 c-54 -10 -101 -20 -104 -24 -9 -9 2 -8 96 9 59 10 88 11 97
4 8 -7 14 -6 20 2 5 8 3 9 -6 4 -10 -6 -12 -4 -7 8 3 10 5 16 4 16 -1 -1 -46
-10 -100 -19z"/>
<path d="M877 359 c-7 -4 -28 -9 -47 -13 -19 -3 -46 -8 -60 -11 -14 -3 -38 -8
-55 -11 -45 -9 -60 -12 -60 -14 0 -1 -22 -3 -49 -5 -26 -3 -58 -10 -70 -18
-11 -8 -34 -17 -51 -22 -16 -4 -25 -9 -19 -12 13 -4 484 93 518 107 15 7 4 9
-37 7 -32 -1 -64 -5 -70 -8z"/>
<path d="M1440 323 c-19 -3 -39 -9 -44 -14 -16 -15 56 -10 84 6 25 14 23 15
-40 8z"/>
<path d="M400 207 c25 -24 377 -98 565 -119 165 -18 862 -18 1005 0 155 20
334 52 344 63 6 5 18 9 27 9 10 0 21 5 25 12 5 8 2 9 -9 5 -9 -3 -19 -2 -22 4
-6 9 -32 7 -73 -5 -9 -2 -39 -7 -67 -11 -27 -3 -66 -10 -85 -15 -19 -5 -66
-12 -105 -15 -38 -3 -77 -8 -85 -10 -8 -2 -103 -7 -210 -11 -296 -11 -552 -7
-577 9 -7 5 -13 4 -13 -1 0 -6 -8 -9 -17 -7 -20 5 -112 14 -193 21 -85 7 -125
11 -127 14 -2 1 -7 4 -13 5 -5 1 -12 4 -15 5 -3 1 -8 3 -12 4 -5 1 -13 5 -20
9 -6 4 -28 5 -48 3 -29 -4 -35 -2 -31 10 4 9 -2 13 -17 12 -12 -1 -37 2 -54 6
-19 4 -33 4 -33 -2 0 -9 -42 -8 -110 4 -19 3 -33 4 -30 1z"/>
</g>
</svg>
